<?xml version="1.0" standalone="no"?>
<!DOCTYPE svg PUBLIC "-//W3C//DTD SVG 20010904//EN"
 "http://www.w3.org/TR/2001/REC-SVG-20010904/DTD/svg10.dtd">
<svg version="1.0" xmlns="http://www.w3.org/2000/svg"
 width="512.000000pt" height="512.000000pt" viewBox="0 0 512.000000 512.000000"
 preserveAspectRatio="xMidYMid meet">
<metadata>
Created by potrace 1.11, written by Peter Selinger 2001-2013
</metadata>
<g transform="translate(0.000000,512.000000) scale(0.100000,-0.100000)"
fill="#000000" stroke="none">
<path d="M2468 4935 c-2 -2 -32 -5 -68 -9 -183 -18 -417 -102 -581 -209 -361
-233 -597 -613 -665 -1067 -7 -48 -15 -1055 -8 -1080 3 -13 28 -15 154 -14
l150 1 1 -36 c0 -20 0 -208 0 -418 0 -292 2 -382 12 -385 6 -3 227 -4 490 -4
264 1 481 -3 484 -7 6 -10 7 -267 1 -273 -3 -2 -19 3 -37 12 -18 9 -61 21 -97
27 -111 19 -226 -17 -311 -98 -39 -37 -46 -41 -66 -30 -144 74 -322 48 -434
-64 -42 -42 -83 -116 -83 -149 0 -21 -20 -40 -64 -62 -77 -39 -146 -152 -146
-240 0 -96 65 -202 150 -245 43 -22 50 -30 64 -77 55 -182 271 -285 456 -217
30 11 62 22 70 25 8 2 33 -13 57 -36 86 -83 205 -117 324 -93 79 16 132 44
184 98 l40 41 50 -25 c69 -35 198 -39 276 -10 108 41 184 120 214 222 9 32 21
47 49 63 36 20 87 65 115 99 20 25 49 107 45 128 -2 18 6 18 159 13 89 -3 243
-8 343 -12 l180 -6 -2 1408 c-2 775 -5 1418 -7 1429 -2 11 -7 43 -12 70 -11
72 -11 74 -29 143 -146 561 -610 989 -1161 1073 -70 10 -289 21 -297 14z"/>
</g>
</svg>
