<svg width="438" height="265" viewBox="0 0 438 265" fill="none" xmlns="http://www.w3.org/2000/svg">
<g clip-path="url(#clip0)">
<path d="M251.789 99.6323C259.773 99.6323 266.245 93.1491 266.245 85.1516C266.245 77.1542 259.773 70.671 251.789 70.671C243.806 70.671 237.334 77.1542 237.334 85.1516C237.334 93.1491 243.806 99.6323 251.789 99.6323Z" fill="#2F2E41"/>
<path d="M255.817 71.0696C258.319 71.0699 260.778 71.7205 262.953 72.9578C265.129 74.1951 266.947 75.9768 268.229 78.1286C269.512 80.2804 270.215 82.7287 270.27 85.2342C270.324 87.7396 269.729 90.2165 268.543 92.4227C269.796 90.8519 270.709 89.0368 271.223 87.0931C271.737 85.1494 271.842 83.1197 271.53 81.1333C271.218 79.1469 270.496 77.2474 269.411 75.5559C268.325 73.8644 266.9 72.4179 265.226 71.3087C263.551 70.1994 261.665 69.4517 259.686 69.1132C257.707 68.7748 255.68 68.8529 253.733 69.3427C251.786 69.8325 249.962 70.7232 248.378 71.9581C246.793 73.1929 245.483 74.7448 244.531 76.5149C245.882 74.8155 247.599 73.4433 249.553 72.5005C251.507 71.5577 253.648 71.0686 255.817 71.0696V71.0696Z" fill="#2F2E41"/>
<path d="M224.776 85.121C248.229 85.121 267.241 66.0765 267.241 42.584C267.241 19.0914 248.229 0.0469513 224.776 0.0469513C201.324 0.0469513 182.312 19.0914 182.312 42.584C182.312 66.0765 201.324 85.121 224.776 85.121Z" fill="#2F2E41"/>
<path d="M191.449 16.1918C198.766 7.94877 208.994 2.87587 219.974 2.04372C230.954 1.21158 241.827 4.68528 250.299 11.7317C249.952 11.401 249.608 11.0677 249.247 10.7464C240.83 3.25399 229.786 -0.582571 218.545 0.0804979C207.304 0.743567 196.786 5.85196 189.304 14.2822C181.823 22.7125 177.99 33.7742 178.65 45.0347C179.309 56.2951 184.406 66.8322 192.82 74.3285C193.181 74.6498 193.552 74.9526 193.92 75.2593C185.942 67.6568 181.225 57.2467 180.763 46.2261C180.302 35.2054 184.134 24.4364 191.449 16.1918V16.1918Z" fill="#2F2E41"/>
<path d="M224.417 84.7605C239.522 84.7605 251.767 72.4946 251.767 57.3638C251.767 42.233 239.522 29.9671 224.417 29.9671C209.312 29.9671 197.067 42.233 197.067 57.3638C197.067 72.4946 209.312 84.7605 224.417 84.7605Z" fill="#FFB8B8"/>
<path d="M204.984 66.0154C204.984 66.0154 208.582 99.1798 202.824 102.785C197.067 106.389 235.932 111.436 235.932 111.436C235.932 111.436 230.174 75.3879 244.569 66.0154H204.984Z" fill="#FFB8B8"/>
<path d="M239.531 97.0169C239.531 97.0169 250.248 92.0037 234.813 93.7893C219.378 95.575 206.062 88.7258 206.062 88.7258C206.062 88.7258 201.385 84.0395 200.665 89.0863C199.946 94.133 202.824 103.506 186.99 104.948C171.156 106.389 156.761 102.064 151.003 112.878C145.246 123.693 148.125 170.555 148.125 170.555C148.125 170.555 158.921 209.488 167.557 215.255C176.194 221.023 251.767 213.092 251.767 213.092L273.359 174.16V128.739C273.359 128.739 270.48 112.878 250.327 117.204C250.327 117.204 237.372 114.32 238.092 107.831C238.811 101.343 239.531 97.0169 239.531 97.0169Z" fill="#D0CDE1"/>
<path d="M170.414 242.807C170.859 240.865 171.156 239.767 171.156 239.767L170.926 238.188L168.555 222.058L167.558 215.255C176.193 211.65 178.354 195.067 178.354 195.067L178.679 194.872L180.153 193.989V193.985L185.443 190.806L185.551 190.742L187.687 192.166L192.029 195.067C207.217 206.255 222.684 206.056 232.228 204.293C238.063 203.215 241.689 201.556 241.689 201.556L252.159 198.059L252.485 197.951L252.807 197.999L258.947 198.93L259.058 198.95L259.567 199.026L258.145 208.873L256.083 223.184C261.529 226.073 266.371 231.5 270.605 238.188C271.542 239.668 272.45 241.208 273.329 242.807C274.473 244.876 275.565 247.028 276.606 249.233C276.733 249.495 276.856 249.762 276.979 250.028C277.381 250.892 277.778 251.763 278.163 252.638H168.507C168.65 251.759 168.793 250.919 168.932 250.112C168.939 250.084 168.945 250.056 168.948 250.028C169 249.758 169.047 249.495 169.091 249.233C169.576 246.607 170.044 244.414 170.414 242.807Z" fill="#2F2E41"/>
<path d="M166.118 104.227C166.118 104.227 174.035 118.646 171.156 136.67C168.277 154.694 179.793 199.394 179.793 199.394L188.43 197.231C188.43 197.231 182.672 159.741 184.111 151.089C185.551 142.438 185.551 108.552 178.353 104.227C171.156 99.9008 166.118 104.227 166.118 104.227Z" fill="#2F2E41"/>
<path d="M249.821 119.211L252.846 199.034L258.604 202.638C258.604 202.638 266.881 115.041 262.563 115.041H253.776C253.239 115.041 252.707 115.151 252.214 115.363C251.72 115.575 251.275 115.886 250.905 116.276C250.535 116.666 250.248 117.127 250.062 117.632C249.875 118.136 249.793 118.674 249.821 119.211V119.211Z" fill="#2F2E41"/>
<path d="M183.751 197.592C185.739 197.592 187.35 195.978 187.35 193.987C187.35 191.996 185.739 190.382 183.751 190.382C181.764 190.382 180.153 191.996 180.153 193.987C180.153 195.978 181.764 197.592 183.751 197.592Z" fill="#6C63FF"/>
<path d="M255.725 201.197C257.713 201.197 259.324 199.583 259.324 197.592C259.324 195.601 257.713 193.987 255.725 193.987C253.738 193.987 252.126 195.601 252.126 197.592C252.126 199.583 253.738 201.197 255.725 201.197Z" fill="#6C63FF"/>
<path d="M201.025 23.1177V50.5144H207.359L215.42 41.8628L214.34 50.5144H242.338L240.61 41.8628L244.065 50.5144H248.528V23.1177H201.025Z" fill="#2F2E41"/>
<path d="M196.707 55.5614C197.899 55.5614 198.866 53.786 198.866 51.5961C198.866 49.4061 197.899 47.6307 196.707 47.6307C195.514 47.6307 194.548 49.4061 194.548 51.5961C194.548 53.786 195.514 55.5614 196.707 55.5614Z" fill="#FFB8B8"/>
<path d="M252.126 55.5614C253.319 55.5614 254.286 53.786 254.286 51.5961C254.286 49.4061 253.319 47.6307 252.126 47.6307C250.934 47.6307 249.967 49.4061 249.967 51.5961C249.967 53.786 250.934 55.5614 252.126 55.5614Z" fill="#FFB8B8"/>
<path d="M266.881 197.231C266.881 197.231 234.133 191.103 231.974 201.917C229.815 212.732 268.32 208.046 268.32 208.046L266.881 197.231Z" fill="#FFB8B8"/>
<path d="M266.161 122.972C266.161 122.972 344.612 185.696 330.218 200.836C315.823 215.976 261.123 211.651 261.123 211.651L264.722 193.626L296.39 190.022L280.556 174.16L266.161 175.602V122.972Z" fill="#D0CDE1"/>
<path d="M150.284 227.512L160.36 235.442C160.36 235.442 167.557 257.792 178.353 251.304C189.149 244.815 168.277 221.744 168.277 221.744L156.042 217.418L150.284 227.512Z" fill="#FFB8B8"/>
<path d="M160.36 111.436L150.311 114.466C150.311 114.466 80.4694 166.23 77.5904 180.649C74.7115 195.068 91.2654 202.999 91.2654 202.999L153.882 232.559L160.36 215.255L130.851 200.115C130.851 200.115 133.01 195.789 124.373 195.068C115.736 194.347 114.297 184.975 114.297 184.975C114.297 184.975 131.571 158.299 140.927 164.067C150.284 169.835 153.163 174.16 153.163 174.16L160.36 111.436Z" fill="#D0CDE1"/>
<path d="M303.69 245.278V247.693C303.692 248.356 303.569 249.013 303.329 249.63C303.222 249.906 303.093 250.172 302.944 250.426C302.47 251.222 301.799 251.881 300.994 252.339C300.19 252.796 299.281 253.037 298.356 253.036H120.992C120.067 253.037 119.158 252.796 118.353 252.339C117.549 251.881 116.877 251.222 116.404 250.426C116.254 250.172 116.125 249.906 116.019 249.63C115.779 249.013 115.656 248.356 115.657 247.693V245.278C115.657 244.576 115.795 243.881 116.063 243.233C116.331 242.584 116.724 241.995 117.219 241.499C117.715 241.003 118.303 240.609 118.95 240.341C119.597 240.072 120.291 239.934 120.992 239.934H131.215V238.808C131.215 238.779 131.221 238.75 131.232 238.723C131.243 238.696 131.26 238.671 131.28 238.651C131.301 238.63 131.325 238.614 131.352 238.602C131.379 238.591 131.408 238.586 131.438 238.586H136.772C136.801 238.586 136.83 238.591 136.857 238.602C136.884 238.614 136.909 238.63 136.929 238.651C136.95 238.671 136.966 238.696 136.977 238.723C136.989 238.75 136.994 238.779 136.994 238.808V239.934H140.327V238.808C140.327 238.779 140.332 238.75 140.344 238.723C140.355 238.696 140.371 238.671 140.392 238.651C140.412 238.63 140.437 238.614 140.464 238.602C140.491 238.591 140.52 238.586 140.549 238.586H145.883C145.913 238.586 145.942 238.591 145.969 238.602C145.996 238.614 146.02 238.63 146.041 238.651C146.061 238.671 146.078 238.696 146.089 238.723C146.1 238.75 146.106 238.779 146.106 238.808V239.934H149.442V238.808C149.442 238.779 149.448 238.75 149.459 238.723C149.47 238.696 149.487 238.671 149.507 238.651C149.528 238.63 149.552 238.614 149.579 238.602C149.606 238.591 149.635 238.586 149.665 238.586H154.999C155.028 238.586 155.057 238.591 155.084 238.602C155.111 238.614 155.136 238.63 155.156 238.651C155.177 238.671 155.193 238.696 155.204 238.723C155.216 238.75 155.221 238.779 155.221 238.808V239.934H158.554V238.808C158.554 238.779 158.559 238.75 158.571 238.723C158.582 238.696 158.598 238.671 158.619 238.651C158.639 238.63 158.664 238.614 158.691 238.602C158.718 238.591 158.747 238.586 158.776 238.586H164.11C164.14 238.586 164.169 238.591 164.196 238.602C164.223 238.614 164.247 238.63 164.268 238.651C164.288 238.671 164.305 238.696 164.316 238.723C164.327 238.75 164.333 238.779 164.333 238.808V239.934H167.665V238.808C167.665 238.779 167.671 238.75 167.682 238.723C167.693 238.696 167.71 238.671 167.73 238.651C167.751 238.63 167.775 238.614 167.802 238.602C167.829 238.591 167.858 238.586 167.888 238.586H173.222C173.251 238.586 173.28 238.591 173.307 238.602C173.334 238.614 173.359 238.63 173.379 238.651C173.4 238.671 173.416 238.696 173.427 238.723C173.439 238.75 173.444 238.779 173.444 238.808V239.934H176.781V238.808C176.781 238.779 176.786 238.75 176.797 238.723C176.809 238.696 176.825 238.671 176.846 238.651C176.866 238.63 176.891 238.614 176.918 238.602C176.945 238.591 176.974 238.586 177.003 238.586H182.337C182.367 238.586 182.395 238.591 182.423 238.602C182.45 238.614 182.474 238.63 182.495 238.651C182.515 238.671 182.532 238.696 182.543 238.723C182.554 238.75 182.56 238.779 182.56 238.808V239.934H185.892V238.808C185.892 238.779 185.898 238.75 185.909 238.723C185.92 238.696 185.937 238.671 185.957 238.651C185.978 238.63 186.002 238.614 186.029 238.602C186.056 238.591 186.085 238.586 186.115 238.586H227.899C227.928 238.586 227.957 238.591 227.984 238.602C228.011 238.614 228.036 238.63 228.056 238.651C228.077 238.671 228.093 238.696 228.104 238.723C228.116 238.75 228.121 238.779 228.121 238.808V239.934H231.458V238.808C231.458 238.779 231.463 238.75 231.474 238.723C231.486 238.696 231.502 238.671 231.523 238.651C231.543 238.63 231.568 238.614 231.595 238.602C231.622 238.591 231.651 238.586 231.68 238.586H237.014C237.073 238.586 237.129 238.61 237.171 238.651C237.213 238.693 237.236 238.749 237.237 238.808V239.934H240.569V238.808C240.569 238.779 240.575 238.75 240.586 238.723C240.597 238.696 240.613 238.671 240.634 238.651C240.655 238.63 240.679 238.614 240.706 238.602C240.733 238.591 240.762 238.586 240.792 238.586H246.126C246.155 238.586 246.184 238.591 246.211 238.602C246.238 238.614 246.262 238.63 246.283 238.651C246.304 238.671 246.32 238.696 246.331 238.723C246.343 238.75 246.348 238.779 246.348 238.808V239.934H249.681V238.808C249.681 238.779 249.686 238.75 249.697 238.723C249.709 238.696 249.725 238.671 249.746 238.651C249.766 238.63 249.791 238.614 249.818 238.602C249.845 238.591 249.874 238.586 249.903 238.586H255.237C255.267 238.586 255.295 238.591 255.322 238.602C255.349 238.614 255.374 238.63 255.395 238.651C255.415 238.671 255.432 238.696 255.443 238.723C255.454 238.75 255.46 238.779 255.46 238.808V239.934H258.796V238.808C258.796 238.779 258.802 238.75 258.813 238.723C258.824 238.696 258.84 238.671 258.861 238.651C258.882 238.63 258.906 238.614 258.933 238.602C258.96 238.591 258.989 238.586 259.019 238.586H264.353C264.411 238.586 264.467 238.61 264.508 238.652C264.549 238.694 264.572 238.75 264.571 238.808V239.934H267.908V238.808C267.908 238.779 267.913 238.75 267.924 238.723C267.936 238.696 267.952 238.671 267.973 238.651C267.993 238.63 268.018 238.614 268.045 238.602C268.072 238.591 268.101 238.586 268.13 238.586H273.464C273.493 238.586 273.522 238.591 273.549 238.602C273.576 238.614 273.601 238.63 273.622 238.651C273.642 238.671 273.659 238.696 273.67 238.723C273.681 238.75 273.687 238.779 273.687 238.808V239.934H277.019V238.808C277.019 238.779 277.025 238.75 277.036 238.723C277.047 238.696 277.063 238.671 277.084 238.651C277.105 238.63 277.129 238.614 277.156 238.602C277.183 238.591 277.212 238.586 277.242 238.586H282.576C282.605 238.586 282.634 238.591 282.661 238.602C282.688 238.614 282.712 238.63 282.733 238.651C282.754 238.671 282.77 238.696 282.781 238.723C282.793 238.75 282.798 238.779 282.798 238.808V239.934H298.356C299.057 239.934 299.75 240.072 300.398 240.341C301.045 240.609 301.633 241.003 302.128 241.499C302.624 241.995 303.017 242.584 303.285 243.233C303.553 243.881 303.69 244.576 303.69 245.278V245.278Z" fill="#3F3D56"/>
<path d="M355.264 249.629H64.1254V250.424H355.264V249.629Z" fill="#3F3D56"/>
<path d="M289.408 143.569H223.299V142.204H193.323V143.569H126.941C125.755 143.569 124.618 144.041 123.779 144.881C122.94 145.721 122.469 146.861 122.469 148.049V238.727C122.469 239.915 122.94 241.055 123.779 241.895C124.618 242.735 125.755 243.207 126.941 243.207H289.408C290.594 243.207 291.732 242.735 292.57 241.895C293.409 241.055 293.88 239.915 293.88 238.727V148.049C293.88 147.46 293.764 146.878 293.54 146.334C293.315 145.791 292.986 145.297 292.57 144.881C292.155 144.465 291.662 144.135 291.12 143.91C290.577 143.685 289.996 143.569 289.408 143.569V143.569Z" fill="#3F3D56"/>
<path d="M208.305 185.174C213.789 185.174 218.234 180.721 218.234 175.227C218.234 169.734 213.789 165.281 208.305 165.281C202.821 165.281 198.375 169.734 198.375 175.227C198.375 180.721 202.821 185.174 208.305 185.174Z" stroke="#D0CDE1" stroke-width="2" stroke-miterlimit="10"/>
<path d="M205.127 188.755C210.611 188.755 215.057 184.302 215.057 178.808C215.057 173.315 210.611 168.861 205.127 168.861C199.643 168.861 195.198 173.315 195.198 178.808C195.198 184.302 199.643 188.755 205.127 188.755Z" fill="#D0CDE1"/>
<path d="M85.4035 264.005H10.3349V264.905H85.4035V264.005Z" fill="#3F3D56"/>
<path d="M413.084 264.005H338.015V264.905H413.084V264.005Z" fill="#3F3D56"/>
<path d="M54.0729 235.027C46.1645 247.96 48.8854 264.048 48.8854 264.048C48.8854 264.048 64.4284 259.167 72.3368 246.233C80.2452 233.3 77.5243 217.213 77.5243 217.213C77.5243 217.213 61.9814 222.094 54.0729 235.027Z" fill="#3F3D56"/>
<path d="M48.5626 264.155L48.113 264.083C47.9504 264.058 31.7655 261.371 22.0724 249.754C12.3793 238.137 12.6126 221.705 12.6158 221.54L12.6254 221.084L13.0751 221.156C13.2377 221.181 29.4226 223.868 39.1157 235.485C48.8087 247.102 48.5754 263.534 48.5723 263.699L48.5626 264.155Z" fill="#6C63FF"/>
<path d="M49.2012 264.564L48.7668 264.427C48.6097 264.378 32.9902 259.352 25.0953 246.441C17.2004 233.53 19.8275 217.308 19.8546 217.146L19.9306 216.697L20.3651 216.833C20.5222 216.882 36.1417 221.908 44.0366 234.819C51.9315 247.73 49.3044 263.952 49.2772 264.114L49.2012 264.564ZM20.5714 217.744C20.2119 220.466 18.7787 234.588 25.7725 246.026C32.7668 257.463 45.9764 262.6 48.5604 263.517C48.92 260.794 50.3532 246.673 43.3593 235.235C36.3651 223.797 23.1555 218.66 20.5714 217.744H20.5714Z" fill="#3F3D56"/>
<path d="M49.3788 222.14C54.2048 222.14 58.117 218.222 58.117 213.387C58.117 208.553 54.2048 204.634 49.3788 204.634C44.5529 204.634 40.6407 208.553 40.6407 213.387C40.6407 218.222 44.5529 222.14 49.3788 222.14Z" fill="#3F3D56"/>
<path d="M158.792 102.751L108.664 52.1409H84.9983V51.3452H108.995L109.112 51.4634L159.356 102.191L158.792 102.751Z" fill="#3F3D56"/>
<path d="M276.527 101.159L326.655 50.5495H350.32V49.7537H326.323L326.207 49.8719L275.962 100.6L276.527 101.159Z" fill="#3F3D56"/>
<path d="M57.9895 27.1901H3.43323e-05V38.6794H57.9895V27.1901Z" fill="#D0CDE1"/>
<path d="M57.9895 44.8202H3.43323e-05V56.3095H57.9895V44.8202Z" fill="#D0CDE1"/>
<path d="M57.9895 62.4503H3.43323e-05V73.9395H57.9895V62.4503Z" fill="#D0CDE1"/>
<path opacity="0.15" d="M23.9897 27.1901H4.00543e-05V38.6794H23.9897V27.1901Z" fill="black"/>
<path opacity="0.15" d="M7.76645 44.8202H0V56.3094H7.76645V44.8202Z" fill="black"/>
<path opacity="0.15" d="M38.6597 62.4503H3.43323e-05V73.9395H38.6597V62.4503Z" fill="black"/>
<path d="M437.305 29.7712H379.226V34.9554H437.305V29.7712Z" fill="#D0CDE1"/>
<path d="M368.97 29.1002H357.47V40.6206H368.97V29.1002Z" fill="#6C63FF"/>
<path d="M368.97 46.3807H357.47V57.901H368.97V46.3807Z" fill="#6C63FF"/>
<path d="M368.97 63.6612H357.47V75.1816H368.97V63.6612Z" fill="#6C63FF"/>
<path d="M372.148 38.2334H359.853V25.9172H372.148V38.2334ZM360.647 37.4377H371.353V26.7129H360.647V37.4377Z" fill="#3F3D56"/>
<path d="M437.305 47.0517H379.226V52.2359H437.305V47.0517Z" fill="#D0CDE1"/>
<path d="M372.148 55.5138H359.853V43.1978H372.148V55.5138ZM360.647 54.7181H371.353V43.9935H360.647V54.7181Z" fill="#3F3D56"/>
<path d="M437.305 64.3323H379.226V69.5164H437.305V64.3323Z" fill="#D0CDE1"/>
<path d="M372.148 72.7943H359.853V60.4782H372.148V72.7943ZM360.647 71.9985H371.353V61.274H360.647V71.9985Z" fill="#3F3D56"/>
<path d="M75.0686 39.4091C78.5784 39.4091 81.4236 36.559 81.4236 33.0433C81.4236 29.5275 78.5784 26.6774 75.0686 26.6774C71.5588 26.6774 68.7136 29.5275 68.7136 33.0433C68.7136 36.559 71.5588 39.4091 75.0686 39.4091Z" fill="#6C63FF"/>
<path d="M75.0686 58.5068C78.5784 58.5068 81.4236 55.6567 81.4236 52.1409C81.4236 48.6251 78.5784 45.775 75.0686 45.775C71.5588 45.775 68.7136 48.6251 68.7136 52.1409C68.7136 55.6567 71.5588 58.5068 75.0686 58.5068Z" fill="#6C63FF"/>
<path d="M75.0686 75.6151C78.5784 75.6151 81.4236 72.765 81.4236 69.2492C81.4236 65.7334 78.5784 62.8833 75.0686 62.8833C71.5588 62.8833 68.7136 65.7334 68.7136 69.2492C68.7136 72.765 71.5588 75.6151 75.0686 75.6151Z" fill="#6C63FF"/>
<path d="M71.8911 38.2155C70.5556 38.2155 69.2502 37.8188 68.1398 37.0756C67.0294 36.3324 66.1639 35.2761 65.6529 34.0401C65.1418 32.8042 65.0081 31.4443 65.2686 30.1322C65.5292 28.8202 66.1723 27.615 67.1166 26.6691C68.0609 25.7232 69.264 25.079 70.5738 24.818C71.8836 24.557 73.2412 24.691 74.4751 25.2029C75.7089 25.7148 76.7634 26.5817 77.5053 27.694C78.2473 28.8063 78.6433 30.114 78.6433 31.4518C78.6413 33.245 77.9293 34.9642 76.6634 36.2323C75.3976 37.5003 73.6813 38.2135 71.8911 38.2155V38.2155ZM71.8911 25.4838C70.7128 25.4838 69.5609 25.8338 68.5811 26.4895C67.6014 27.1453 66.8377 28.0774 66.3868 29.1679C65.9359 30.2584 65.8179 31.4584 66.0478 32.6161C66.2776 33.7738 66.8451 34.8372 67.6783 35.6718C68.5115 36.5064 69.5731 37.0748 70.7288 37.3051C71.8845 37.5354 73.0824 37.4172 74.1711 36.9655C75.2597 36.5138 76.1902 35.7489 76.8448 34.7674C77.4995 33.786 77.8489 32.6321 77.8489 31.4518C77.8471 29.8695 77.2189 28.3526 76.1019 27.2337C74.985 26.1149 73.4707 25.4855 71.8911 25.4838V25.4838Z" fill="#3F3D56"/>
<path d="M71.8911 57.3132C70.5556 57.3132 69.2502 56.9165 68.1398 56.1733C67.0294 55.43 66.1639 54.3737 65.6529 53.1378C65.1418 51.9019 65.0081 50.5419 65.2686 49.2299C65.5292 47.9178 66.1723 46.7126 67.1166 45.7667C68.0609 44.8208 69.264 44.1766 70.5738 43.9156C71.8836 43.6546 73.2412 43.7886 74.4751 44.3005C75.7089 44.8125 76.7634 45.6794 77.5053 46.7917C78.2473 47.904 78.6433 49.2117 78.6433 50.5494C78.6413 52.3427 77.9293 54.0619 76.6634 55.3299C75.3976 56.5979 73.6813 57.3112 71.8911 57.3132V57.3132ZM71.8911 44.5814C70.7128 44.5814 69.5609 44.9314 68.5811 45.5872C67.6014 46.243 66.8377 47.175 66.3868 48.2656C65.9359 49.3561 65.8179 50.556 66.0478 51.7137C66.2776 52.8714 66.8451 53.9348 67.6783 54.7694C68.5115 55.6041 69.5731 56.1725 70.7288 56.4028C71.8845 56.633 73.0824 56.5148 74.1711 56.0631C75.2597 55.6114 76.1902 54.8465 76.8448 53.8651C77.4995 52.8836 77.8489 51.7298 77.8489 50.5494C77.8471 48.9671 77.2189 47.4502 76.1019 46.3314C74.985 45.2125 73.4707 44.5832 71.8911 44.5814Z" fill="#3F3D56"/>
<path d="M71.8911 74.4215C70.5556 74.4215 69.2502 74.0248 68.1398 73.2816C67.0294 72.5384 66.1639 71.482 65.6529 70.2461C65.1418 69.0102 65.0081 67.6502 65.2686 66.3382C65.5292 65.0262 66.1723 63.821 67.1166 62.875C68.0609 61.9291 69.264 61.2849 70.5738 61.024C71.8836 60.763 73.2412 60.8969 74.4751 61.4088C75.7089 61.9208 76.7634 62.7877 77.5053 63.9C78.2473 65.0123 78.6433 66.32 78.6433 67.6577C78.6413 69.451 77.9293 71.1702 76.6634 72.4382C75.3976 73.7062 73.6813 74.4195 71.8911 74.4215V74.4215ZM71.8911 61.6897C70.7128 61.6897 69.5609 62.0397 68.5811 62.6955C67.6014 63.3513 66.8377 64.2834 66.3868 65.3739C65.9359 66.4644 65.8179 67.6644 66.0478 68.822C66.2776 69.9797 66.8451 71.0431 67.6783 71.8778C68.5115 72.7124 69.5731 73.2808 70.7288 73.5111C71.8845 73.7414 73.0824 73.6232 74.1711 73.1715C75.2597 72.7198 76.1902 71.9548 76.8448 70.9734C77.4995 69.992 77.8489 68.8381 77.8489 67.6577C77.8471 66.0755 77.2189 64.5585 76.1019 63.4397C74.985 62.3209 73.4707 61.6915 71.8911 61.6897V61.6897Z" fill="#3F3D56"/>
<path d="M392.819 237.149H392.025V231.181C392.025 230.865 392.151 230.561 392.374 230.338C392.598 230.114 392.901 229.988 393.217 229.988H395.203C395.308 229.988 395.409 229.946 395.483 229.871C395.558 229.796 395.6 229.695 395.6 229.59V225.611C395.6 225.506 395.558 225.404 395.483 225.33C395.409 225.255 395.308 225.213 395.203 225.213H393.217C392.901 225.213 392.598 225.087 392.374 224.863C392.151 224.64 392.025 224.336 392.025 224.02V222.03C392.025 221.925 391.983 221.824 391.909 221.749C391.834 221.674 391.733 221.633 391.628 221.632H388.053C387.737 221.632 387.434 221.506 387.211 221.282C386.988 221.059 386.862 220.755 386.862 220.439V220.041C386.861 219.935 386.82 219.834 386.745 219.76C386.671 219.685 386.57 219.643 386.464 219.643H372.166C372.06 219.643 371.959 219.685 371.885 219.76C371.81 219.834 371.768 219.935 371.768 220.041V220.439C371.768 220.755 371.642 221.059 371.419 221.282C371.196 221.506 370.893 221.632 370.577 221.632H367.002C366.897 221.633 366.796 221.674 366.721 221.749C366.647 221.824 366.605 221.925 366.605 222.03V224.02C366.605 224.336 366.479 224.64 366.256 224.863C366.032 225.087 365.729 225.213 365.413 225.213H363.427C363.322 225.213 363.221 225.255 363.147 225.33C363.072 225.404 363.03 225.506 363.03 225.611V229.59C363.03 229.695 363.072 229.796 363.147 229.871C363.221 229.946 363.322 229.988 363.427 229.988H365.811C366.127 229.988 366.429 230.114 366.653 230.338C366.876 230.561 367.002 230.865 367.002 231.181V237.149H366.208V231.181C366.208 231.076 366.166 230.975 366.091 230.9C366.017 230.825 365.916 230.783 365.811 230.783H363.427C363.112 230.783 362.809 230.657 362.585 230.433C362.362 230.21 362.236 229.906 362.236 229.59V225.611C362.236 225.295 362.362 224.991 362.585 224.768C362.809 224.544 363.112 224.418 363.427 224.418H365.413C365.519 224.417 365.62 224.376 365.694 224.301C365.769 224.226 365.811 224.125 365.811 224.02V222.03C365.811 221.714 365.937 221.41 366.16 221.187C366.383 220.963 366.686 220.837 367.002 220.837H370.577C370.682 220.837 370.783 220.795 370.858 220.72C370.932 220.646 370.974 220.544 370.974 220.439V220.041C370.974 219.725 371.1 219.421 371.323 219.197C371.547 218.974 371.85 218.848 372.166 218.847H386.464C386.78 218.848 387.083 218.974 387.307 219.197C387.53 219.421 387.656 219.725 387.656 220.041V220.439C387.656 220.544 387.698 220.646 387.772 220.72C387.847 220.795 387.948 220.837 388.053 220.837H391.628C391.944 220.837 392.247 220.963 392.47 221.187C392.693 221.41 392.819 221.714 392.819 222.03V224.02C392.819 224.125 392.861 224.226 392.936 224.301C393.01 224.376 393.111 224.417 393.217 224.418H395.203C395.518 224.418 395.821 224.544 396.045 224.768C396.268 224.991 396.394 225.295 396.394 225.611V229.59C396.394 229.906 396.268 230.21 396.045 230.433C395.821 230.657 395.518 230.783 395.203 230.783H393.217C393.111 230.783 393.01 230.825 392.936 230.9C392.861 230.975 392.819 231.076 392.819 231.181V237.149Z" fill="#3F3D56"/>
<path d="M391.628 265H367.399C367.083 265 366.781 264.874 366.557 264.65C366.334 264.426 366.208 264.123 366.208 263.806V246.698H367.002V263.806C367.002 263.912 367.044 264.013 367.119 264.088C367.193 264.162 367.294 264.204 367.399 264.204H391.628C391.733 264.204 391.834 264.162 391.909 264.088C391.983 264.013 392.025 263.912 392.025 263.806V246.698H392.819V263.806C392.819 264.123 392.693 264.426 392.47 264.65C392.247 264.874 391.944 265 391.628 265V265Z" fill="#3F3D56"/>
<path d="M396.791 239.934H367.002C366.563 239.934 366.208 240.291 366.208 240.73V248.687C366.208 249.127 366.563 249.483 367.002 249.483H396.791C397.23 249.483 397.586 249.127 397.586 248.687V240.73C397.586 240.291 397.23 239.934 396.791 239.934Z" fill="#6C63FF"/>
<path d="M394.21 247.096H364.42C364.105 247.096 363.802 246.97 363.578 246.746C363.355 246.522 363.229 246.219 363.229 245.902V237.945C363.229 237.629 363.355 237.325 363.578 237.101C363.802 236.878 364.105 236.752 364.42 236.751H394.21C394.525 236.752 394.828 236.878 395.052 237.101C395.275 237.325 395.401 237.629 395.401 237.945V245.902C395.401 246.219 395.275 246.522 395.052 246.746C394.828 246.97 394.525 247.096 394.21 247.096ZM364.42 237.547C364.315 237.547 364.214 237.589 364.14 237.664C364.065 237.738 364.023 237.84 364.023 237.945V245.902C364.023 246.008 364.065 246.109 364.14 246.184C364.214 246.258 364.315 246.3 364.42 246.3H394.21C394.315 246.3 394.416 246.258 394.49 246.184C394.565 246.109 394.607 246.008 394.607 245.902V237.945C394.607 237.84 394.565 237.738 394.49 237.664C394.416 237.589 394.315 237.547 394.21 237.547H364.42Z" fill="#3F3D56"/>
<path d="M378.521 216.062C377.465 208.937 377.186 201.719 377.689 194.533L378.521 182.641C373.936 191.779 374.972 203.805 378.521 216.062V216.062Z" fill="#D0CDE1"/>
<path d="M382.095 218.052C381.587 213.8 381.453 209.512 381.695 205.237L382.095 198.158C379.89 203.597 380.388 210.756 382.095 218.052Z" fill="#D0CDE1"/>
</g>
<defs>
<clipPath id="clip0">
<rect width="437.305" height="265" fill="white"/>
</clipPath>
</defs>
</svg>
