<?xml version="1.0" encoding="UTF-8"?>
<svg width="319px" height="48px" viewBox="0 0 319 48" version="1.1" xmlns="http://www.w3.org/2000/svg" xmlns:xlink="http://www.w3.org/1999/xlink" style="background: #FFFFFF;">
    <title>logo-horizontal</title>
    <g id="Page-1" stroke="none" stroke-width="1" fill="none" fill-rule="evenodd">
        <g id="logo-horizontal" transform="translate(4.000000, -3.000000)">
            <path d="M14.1608603,43.7412553 C14.4740753,43.7387695 14.9662703,43.731312 15.6374453,43.7188828 C16.4764141,43.7033464 17.2765417,43.6489688 18.0378281,43.55575 C20.6945625,43.2139479 22.9434648,42.2701081 24.7845352,40.7242305 C26.6256055,39.1783529 28.0200026,37.2091068 28.9677266,34.8164922 C29.9154505,32.4238776 30.3893125,29.8059844 30.3893125,26.9628125 C30.3893125,24.1196406 29.9154505,21.5017474 28.9677266,19.1091328 C28.0200026,16.7165182 26.6256055,14.7472721 24.7845352,13.2013945 C22.9434648,11.6555169 20.6945625,10.7116771 18.0378281,10.369875 C17.2610052,10.2766563 16.4569935,10.2222786 15.625793,10.2067422 C14.7945924,10.1912057 14.2391641,10.1834375 13.9595078,10.1834375 L3.26265625,10.1834375 L3.26265625,43.7421875 L14.1608603,43.7412553 Z M13.9595078,38.4520234 L8.97230469,38.4520234 L8.97230469,15.4736016 L13.9595078,15.4736016 C14.4256016,15.4736016 15.0198711,15.4852539 15.7423164,15.5085586 C16.4647617,15.5318633 17.1056406,15.6056615 17.6649531,15.7299531 C19.218599,16.0251458 20.4964727,16.7165182 21.4985742,17.8040703 C22.5006758,18.8916224 23.2425417,20.235526 23.7241719,21.8357813 C24.2058021,23.4360365 24.4466172,25.1450469 24.4466172,26.9628125 C24.4466172,28.7184323 24.2096862,30.3963698 23.7358242,31.996625 C23.2619622,33.5968802 22.5278646,34.9563203 21.5335312,36.0749453 C20.5391979,37.1935703 19.2496719,37.9004792 17.6649531,38.1956719 C17.1056406,38.3044271 16.4647617,38.3743411 15.7423164,38.4054141 C15.0198711,38.436487 14.4256016,38.4520234 13.9595078,38.4520234 L13.9595078,38.4520234 Z M41.5444346,43.7421875 L41.5444346,30.9479141 C41.5444346,29.9846536 41.660958,29.0874232 41.8940049,28.2562227 C42.1270518,27.4250221 42.4882744,26.6831562 42.9776729,26.030625 C43.4670713,25.3780937 44.100182,24.8420859 44.8770049,24.4226016 C45.6538278,23.9565078 46.5277536,23.6846198 47.4987822,23.6069375 C48.4698109,23.5292552 49.3282002,23.5991693 50.0739502,23.8166797 L50.0739502,23.8166797 L50.0739502,18.573125 C49.3282002,18.4488333 48.5591455,18.4138763 47.7667861,18.4682539 C46.9744268,18.5226315 46.201488,18.6702279 45.4479697,18.911043 C44.6944515,19.1518581 44.0069632,19.4820078 43.3855049,19.9014922 C42.6552914,20.3520495 42.0299489,20.9230143 41.5094776,21.6143867 C41.2864184,21.9106892 41.0826213,22.2205464 40.8980862,22.5439584 L40.868,22.5991875 L40.8685986,18.573125 L35.9047002,18.573125 L35.9047002,43.7421875 L41.5444346,43.7421875 Z M76.882036,32.7190703 C77.0995465,29.7049974 76.7655126,27.0871042 75.8799345,24.8653906 C74.9943564,22.6436771 73.6388004,20.9230143 71.8132665,19.7034023 C69.9877327,18.4837904 67.7699032,17.8739844 65.1597782,17.8739844 C62.6894814,17.8739844 60.5143772,18.4332969 58.6344657,19.5519219 C56.7545543,20.6705469 55.286359,22.2436133 54.2298798,24.2711211 C53.1734006,26.2986289 52.645161,28.6873594 52.645161,31.4373125 C52.645161,33.9852917 53.185053,36.2380781 54.2648368,38.1956719 C55.3446207,40.1532656 56.847773,41.6836068 58.7742939,42.7866953 C60.7008147,43.8897839 62.9380647,44.4413281 65.4860439,44.4413281 C67.9097314,44.4413281 70.1275608,43.8121016 72.1395321,42.5536484 C74.1515035,41.2951953 75.6391194,39.5318073 76.6023798,37.2634844 L76.6023798,37.2634844 L71.0558642,35.5855469 C70.5120881,36.7507813 69.7391493,37.6402435 68.7370478,38.2539336 C67.7349462,38.8676237 66.542523,39.1744688 65.1597782,39.1744688 C63.015747,39.1744688 61.3844189,38.4753281 60.2657939,37.0770469 C59.4415439,36.0467344 58.9209649,34.7043155 58.704057,33.0497903 L58.665,32.7191875 L74.1320829,32.7190703 L76.882036,32.7190703 Z M71.18,28.4781875 L58.802,28.4781875 L58.8563264,28.1914356 C59.1024239,26.9763292 59.5177134,25.9597885 60.102195,25.1418133 L60.2657939,24.9236523 C61.3844189,23.5020664 63.0934293,22.7912734 65.3928251,22.7912734 C67.4281012,22.7912734 68.9196012,23.4205 69.8673251,24.6789531 C70.4991411,25.5179219 70.9238043,26.6848825 71.1413147,28.1798351 L71.18,28.4781875 Z M88.681943,44.4413281 C90.9502659,44.4413281 92.8418297,44.0179596 94.3566344,43.1712227 C95.4674911,42.5502822 96.4759972,41.6682429 97.3821525,40.5251049 L97.514,40.3531875 L97.5144195,43.7421875 L102.431709,43.7421875 L102.431709,28.2911797 C102.431709,27.2036276 102.385099,26.1976419 102.29188,25.2732227 C102.198662,24.3488034 101.926774,23.4438047 101.476216,22.5582266 C100.652784,20.8958255 99.3904469,19.6995182 97.6892047,18.9693047 C95.9879625,18.2390911 94.0187164,17.8739844 91.7814664,17.8739844 C88.8140029,17.8739844 86.4563453,18.5187474 84.7084937,19.8082734 C82.9606422,21.0977995 81.7759872,22.8068099 81.1545289,24.9353047 L81.1545289,24.9353047 L86.2815601,26.5433281 C86.7010445,25.2538021 87.4390263,24.3449193 88.4955055,23.8166797 C89.5519846,23.2884401 90.6473049,23.0243203 91.7814664,23.0243203 C93.6613779,23.0243203 94.9975133,23.4360365 95.7898726,24.2594687 C96.4336646,24.9285075 96.8107879,25.9001127 96.9212424,27.1742843 L96.927,27.2681875 L96.9066333,27.2704344 C96.2342154,27.3698677 95.5736051,27.4661937 94.9248026,27.5594125 L93.9604547,27.6969102 C92.3679677,27.9221888 90.8920042,28.166888 89.5325641,28.4310078 C88.173124,28.6951276 86.988469,28.9903203 85.9785992,29.3165859 C84.6424638,29.7671432 83.5549117,30.3458763 82.715943,31.0527852 C81.8769742,31.759694 81.2555159,32.5986628 80.851568,33.5696914 C80.44762,34.5407201 80.2456461,35.6321563 80.2456461,36.844 C80.2456461,38.2267448 80.5680276,39.4929661 81.2127906,40.6426641 C81.8575536,41.792362 82.8091617,42.7128971 84.0676148,43.4042695 C85.326068,44.0956419 86.8641773,44.4413281 88.681943,44.4413281 Z M89.800568,39.9668281 C88.9149898,39.9668281 88.173124,39.827 87.5749703,39.5473437 C86.9768167,39.2676875 86.5223753,38.8909284 86.2116461,38.4170664 C85.9009169,37.9432044 85.7455523,37.3955443 85.7455523,36.7740859 C85.7455523,36.2303099 85.8659599,35.7564479 86.106775,35.3525 C86.3475901,34.9485521 86.6932763,34.5912135 87.1438336,34.2804844 C87.5943909,33.9697552 88.1459351,33.6978672 88.7984664,33.4648203 C89.4665341,33.2473099 90.2355888,33.0492201 91.1056305,32.8705508 C91.9756721,32.6918815 93.0166148,32.5015599 94.2284586,32.2995859 C94.9017051,32.1873782 95.6492773,32.06558 96.4711751,31.9341915 L96.852,31.8741875 L96.8473228,32.0811045 C96.8400401,32.3622173 96.8300264,32.6679092 96.8172816,32.9981804 L96.8036266,33.3366445 C96.7647854,34.2610638 96.5977685,35.080612 96.3025758,35.7952891 C96.1161383,36.370138 95.7549156,36.9838281 95.2189078,37.6363594 C94.6829,38.2888906 93.9643388,38.8404349 93.0632242,39.2909922 C92.1621096,39.7415495 91.0745575,39.9668281 89.800568,39.9668281 Z M114.115086,43.7421875 L114.115086,28.2445703 C114.115086,26.675388 114.546223,25.4013984 115.408497,24.4226016 C116.27077,23.4438047 117.416584,22.9544062 118.845938,22.9544062 C120.321901,22.9544062 121.487136,23.4438047 122.341641,24.4226016 C123.196146,25.4013984 123.623399,26.7686068 123.623399,28.5242266 L123.623399,28.5242266 L123.623399,43.7421875 L129.216524,43.7421875 L129.216524,28.2445703 C129.216524,27.1414818 129.426266,26.1898737 129.84575,25.3897461 C130.265235,24.5896185 130.832316,23.9836966 131.546993,23.5719805 C132.26167,23.1602643 133.069566,22.9544062 133.97068,22.9544062 C135.431107,22.9544062 136.588573,23.4399206 137.443079,24.4109492 C138.297584,25.3819779 138.724836,26.7297656 138.724836,28.4543125 L138.724836,28.4543125 L138.724836,43.7421875 L144.341266,43.7421875 L144.341266,27.0327266 C144.341266,24.3138464 143.5994,22.1193216 142.115668,20.4491523 C140.631937,18.7789831 138.499558,17.9438984 135.718532,17.9438984 C134.040594,17.9438984 132.518021,18.3167734 131.150813,19.0625234 C129.783605,19.8082734 128.699937,20.845332 127.899809,22.1736992 L128.042,21.9471875 L127.983516,21.8350678 C127.417624,20.819253 126.655109,19.9808787 125.69597,19.3199451 L125.429512,19.1440898 C124.163291,18.3439622 122.590224,17.9438984 120.710313,17.9438984 C119.001303,17.9438984 117.459309,18.3206576 116.084332,19.0741758 C115.132426,19.5958422 114.316417,20.2496835 113.636306,21.0356996 L113.415,21.3021875 L113.415946,18.573125 L108.452047,18.573125 L108.452047,43.7421875 L114.115086,43.7421875 Z M164.592943,44.4413281 C168.461521,44.4413281 171.685336,43.4741836 174.264388,41.5398945 C176.84344,39.6056055 178.653438,36.9993646 179.69438,33.7211719 L179.69438,33.7211719 L174.031341,32.1597578 C173.37881,34.334862 172.267953,36.0438724 170.698771,37.2867891 C169.129589,38.5297057 167.094313,39.1511641 164.592943,39.1511641 C162.340156,39.1511641 160.460245,38.6462292 158.953208,37.6363594 C157.446172,36.6264896 156.315895,35.2087878 155.562376,33.3832539 C154.808858,31.5577201 154.432099,29.4175729 154.432099,26.9628125 C154.447635,24.5080521 154.832163,22.3679049 155.585681,20.5423711 C156.339199,18.7168372 157.465593,17.2991354 158.964861,16.2892656 C160.464129,15.2793958 162.340156,14.7744609 164.592943,14.7744609 C167.094313,14.7744609 169.129589,15.3920352 170.698771,16.6271836 C172.267953,17.862332 173.37881,19.5752266 174.031341,21.7658672 L174.031341,21.7658672 L179.69438,20.2044531 C178.653438,16.9262604 176.84344,14.3200195 174.264388,12.3857305 C171.685336,10.4514414 168.461521,9.48429687 164.592943,9.48429687 C161.237068,9.48429687 158.362823,10.2183945 155.970208,11.6865898 C153.577594,13.1547852 151.740408,15.2017135 150.45865,17.827375 C149.176892,20.4530365 148.536013,23.4981823 148.536013,26.9628125 C148.536013,30.4274427 149.176892,33.4725885 150.45865,36.09825 C151.740408,38.7239115 153.577594,40.7708398 155.970208,42.2390352 C158.362823,43.7072305 161.237068,44.4413281 164.592943,44.4413281 Z M190.896123,43.7421875 L190.896123,9.48429687 L185.279693,9.48429687 L185.279693,43.7421875 L190.896123,43.7421875 Z M203.962195,14.7511562 L203.962195,9.60082031 L198.345766,9.60082031 L198.345766,14.7511562 L203.962195,14.7511562 Z M203.962195,43.7421875 L203.962195,18.573125 L198.345766,18.573125 L198.345766,43.7421875 L203.962195,43.7421875 Z M233.784338,32.7190703 C234.001848,29.7049974 233.667815,27.0871042 232.782237,24.8653906 C231.896658,22.6436771 230.541102,20.9230143 228.715569,19.7034023 C226.890035,18.4837904 224.672205,17.8739844 222.06208,17.8739844 C219.591783,17.8739844 217.416679,18.4332969 215.536768,19.5519219 C213.656856,20.6705469 212.188661,22.2436133 211.132182,24.2711211 C210.075703,26.2986289 209.547463,28.6873594 209.547463,31.4373125 C209.547463,33.9852917 210.087355,36.2380781 211.167139,38.1956719 C212.246923,40.1532656 213.750075,41.6836068 215.676596,42.7866953 C217.603117,43.8897839 219.840367,44.4413281 222.388346,44.4413281 C224.812033,44.4413281 227.029863,43.8121016 229.041834,42.5536484 C231.053806,41.2951953 232.541421,39.5318073 233.504682,37.2634844 L233.504682,37.2634844 L227.958166,35.5855469 C227.41439,36.7507813 226.641451,37.6402435 225.63935,38.2539336 C224.637248,38.8676237 223.444825,39.1744688 222.06208,39.1744688 C219.918049,39.1744688 218.286721,38.4753281 217.168096,37.0770469 C216.343846,36.0467344 215.823267,34.7043155 215.606359,33.0497903 L215.567,32.7191875 L231.034385,32.7190703 L233.784338,32.7190703 Z M228.083,28.4781875 L215.704,28.4781875 L215.758628,28.1914356 C216.004726,26.9763292 216.420015,25.9597885 217.004497,25.1418133 L217.168096,24.9236523 C218.286721,23.5020664 219.995731,22.7912734 222.295127,22.7912734 C224.330403,22.7912734 225.821903,23.4205 226.769627,24.6789531 C227.401443,25.5179219 227.826106,26.6848825 228.043617,28.1798351 L228.083,28.4781875 Z M243.952917,43.7421875 L243.952917,30.8080859 C243.952917,29.2699766 244.123818,28.0076393 244.46562,27.0210742 C244.807422,26.0345091 245.261863,25.2576862 245.828944,24.6906055 C246.396025,24.1235247 247.029136,23.7234609 247.728276,23.4904141 C248.427417,23.2573672 249.134326,23.1408437 249.849003,23.1408437 C251.185138,23.1408437 252.245501,23.4282682 253.030093,24.0031172 C253.814684,24.5779661 254.405069,25.3120638 254.801249,26.2054102 C255.197429,27.0987565 255.449896,28.0270599 255.558651,28.9903203 C255.667406,29.9535807 255.721784,30.8313906 255.721784,31.62375 L255.721784,31.62375 L255.721784,43.7421875 L261.408128,43.7421875 L261.408128,29.6894609 C261.408128,29.0835391 261.357634,28.2950638 261.256647,27.3240352 C261.15566,26.3530065 260.934266,25.3237161 260.592464,24.2361641 C260.250662,23.148612 259.722422,22.1232057 259.007745,21.1599453 C258.293068,20.1966849 257.329807,19.4043255 256.117964,18.7828672 C254.90612,18.1614089 253.368011,17.8506797 251.503636,17.8506797 C249.142094,17.8506797 247.153427,18.3672669 245.537636,19.4004414 C244.67588,19.9514678 243.925711,20.6030323 243.287128,21.355135 L243.277,21.3671875 L243.277081,18.573125 L238.266573,18.573125 L238.266573,43.7421875 L243.952917,43.7421875 Z M277.336822,44.1500195 C278.929309,44.1888607 280.556753,44.0529167 282.219154,43.7421875 L282.219154,43.7421875 L282.219154,39.0346406 C280.649972,39.2676875 279.25169,39.3298333 278.02431,39.2210781 C276.79693,39.1123229 275.903584,38.5918516 275.344271,37.6596641 C275.049078,37.1780339 274.88983,36.5565755 274.866525,35.7952891 C274.84322,35.0340026 274.831568,34.1484245 274.831568,33.1385547 L274.831568,33.1385547 L274.831,22.9781875 L282.219154,22.9777109 L282.219154,18.573125 L274.831,18.5731875 L274.831568,11.5817188 L269.238443,11.5817188 L269.238,18.5731875 L264.670724,18.573125 L264.670724,22.9777109 L269.238,22.9781875 L269.238443,33.4648203 C269.238443,34.689981 269.249858,35.8067036 269.272687,36.814988 L269.285052,37.3100938 C269.316125,38.4442552 269.619086,39.555112 270.193935,40.6426641 C270.846466,41.8389714 271.801959,42.7128971 273.060412,43.2644414 C274.318865,43.8159857 275.744335,44.1111784 277.336822,44.1500195 Z M297.374907,44.4413281 C300.622027,44.4413281 303.166122,43.7188828 305.007193,42.2739922 C306.848263,40.8291016 307.768798,38.8404349 307.768798,36.3079922 C307.768798,35.0029297 307.500794,33.8920729 306.964786,32.9754219 C306.428779,32.0587708 305.558737,31.2702956 304.354661,30.6099961 C303.150586,29.9496966 301.546447,29.3631953 299.542243,28.8504922 C297.58465,28.3533255 296.11257,27.9338411 295.126005,27.5920391 C294.13944,27.250237 293.483025,26.9084349 293.156759,26.5666328 C292.830493,26.2248307 292.667361,25.8131146 292.667361,25.3314844 C292.667361,24.4769792 293.071308,23.8127956 293.879204,23.3389336 C294.6871,22.8650716 295.751348,22.6669818 297.071947,22.7446641 C298.454691,22.8223464 299.561664,23.1719167 300.392864,23.793375 C301.224065,24.4148333 301.709579,25.2615703 301.849407,26.3335859 L301.849407,26.3335859 L307.582361,25.3081797 C307.36485,23.8011432 306.790001,22.4883125 305.857814,21.3696875 C304.925626,20.2510625 303.70213,19.3887891 302.187325,18.7828672 C300.672521,18.1769453 298.936322,17.8739844 296.978728,17.8739844 C294.974525,17.8739844 293.234441,18.1885977 291.758478,18.8178242 C290.282514,19.4470508 289.132816,20.3442813 288.309384,21.5095156 C287.485952,22.67475 287.074236,24.0419583 287.074236,25.6111406 C287.074236,26.8695937 287.346124,27.9416094 287.8899,28.8271875 C288.433676,29.7127656 289.327022,30.4779362 290.569939,31.1226992 C291.812855,31.7674622 293.490793,32.3695 295.603751,32.9288125 C297.499199,33.4259792 298.905249,33.8376953 299.8219,34.1639609 C300.738551,34.4902266 301.33282,34.8281445 301.604708,35.1777148 C301.876596,35.5272852 302.01254,35.9894948 302.01254,36.5643437 C302.01254,37.4965313 301.643549,38.2306289 300.905568,38.7666367 C300.167586,39.3026445 299.122759,39.5706484 297.771087,39.5706484 C296.232978,39.5706484 294.958988,39.2133099 293.949118,38.4986328 C292.939249,37.7839557 292.286717,36.8051589 291.991525,35.5622422 L291.991525,35.5622422 L286.258572,36.4478203 C286.678056,38.980263 287.858827,40.945625 289.800884,42.3439063 C291.742941,43.7421875 294.267616,44.4413281 297.374907,44.4413281 Z" id="DreamClients" fill="#000000" fill-rule="nonzero"></path>
            <path d="M208.515625,11.6523438 C208.515625,10.8531911 207.880879,10.1861298 207.04007,10.0342248 C207.04007,10.0226668 207.04375,10.0127599 207.04375,10.0012019 C207.04375,8.90649489 206.055754,8.01983173 204.835938,8.01983173 C204.195672,8.01983173 203.62532,8.267503 203.220555,8.65882362 C202.911461,7.90094952 202.107449,7.359375 201.15625,7.359375 C200.205051,7.359375 199.401039,7.90094952 199.091945,8.65882362 C198.68718,8.267503 198.116828,8.01983173 197.476562,8.01983173 C196.256746,8.01983173 195.26875,8.90649489 195.26875,10.0012019 C195.26875,10.0127599 195.27243,10.0226668 195.27243,10.0342248 C194.431621,10.1861298 193.796875,10.8531911 193.796875,11.6523438 C193.796875,12.4514964 194.431621,13.1185577 195.27243,13.2704627 C195.27243,13.2820207 195.26875,13.2919276 195.26875,13.3034856 C195.26875,14.3981926 196.256746,15.2848558 197.476562,15.2848558 C198.116828,15.2848558 198.68718,15.0371845 199.091945,14.6458639 C199.401039,15.403738 200.205051,15.9453125 201.15625,15.9453125 C202.107449,15.9453125 202.911461,15.403738 203.220555,14.6458639 C203.62532,15.0371845 204.195672,15.2848558 204.835938,15.2848558 C206.055754,15.2848558 207.04375,14.3981926 207.04375,13.3034856 C207.04375,13.2919276 207.04007,13.2820207 207.04007,13.2704627 C207.880879,13.1185577 208.515625,12.4514964 208.515625,11.6523438 Z" id="Cloud-big" stroke="#000000" stroke-width="0.7359375" fill="#FFFFFF"></path>
            <path d="M44.15625,41.703125 C44.15625,41.018137 43.6801904,40.4463702 43.049584,40.3161659 C43.049584,40.306259 43.0523437,40.2977674 43.0523437,40.2878606 C43.0523437,39.3495403 42.3113467,38.5895433 41.3964844,38.5895433 C40.9162852,38.5895433 40.4885215,38.8018329 40.1849473,39.1372506 C39.953127,38.4876442 39.3501182,38.0234375 38.6367188,38.0234375 C37.9233193,38.0234375 37.3203105,38.4876442 37.0884902,39.1372506 C36.784916,38.8018329 36.3571523,38.5895433 35.8769531,38.5895433 C34.9620908,38.5895433 34.2210938,39.3495403 34.2210938,40.2878606 C34.2210938,40.2977674 34.2238535,40.306259 34.2238535,40.3161659 C33.5932471,40.4463702 33.1171875,41.018137 33.1171875,41.703125 C33.1171875,42.388113 33.5932471,42.9598798 34.2238535,43.0900841 C34.2238535,43.099991 34.2210938,43.1084826 34.2210938,43.1183894 C34.2210938,44.0567097 34.9620908,44.8167067 35.8769531,44.8167067 C36.3571523,44.8167067 36.784916,44.6044171 37.0884902,44.2689994 C37.3203105,44.9186058 37.9233193,45.3828125 38.6367188,45.3828125 C39.3501182,45.3828125 39.953127,44.9186058 40.1849473,44.2689994 C40.4885215,44.6044171 40.9162852,44.8167067 41.3964844,44.8167067 C42.3113467,44.8167067 43.0523437,44.0567097 43.0523437,43.1183894 C43.0523437,43.1084826 43.049584,43.099991 43.049584,43.0900841 C43.6801904,42.9598798 44.15625,42.388113 44.15625,41.703125 Z" id="Cloud-big-Copy" stroke="#000000" stroke-width="0.61328125" fill="#FFFFFF"></path>
        </g>
    </g>
</svg>