<?xml version="1.0" encoding="UTF-8"?>
<svg width="184px" height="89px" viewBox="0 0 184 89" version="1.1" xmlns="http://www.w3.org/2000/svg" xmlns:xlink="http://www.w3.org/1999/xlink">
    <title>Group 2</title>
    <g id="Page-1" stroke="none" stroke-width="1" fill="none" fill-rule="evenodd">
        <g id="Group-2">
            <g id="head" transform="translate(135.000000, 7.000000)" stroke="#000000" stroke-width="2">
                <path d="M48,72 L48,25.1428571 C48,11.2571429 37.2545455,0 24,0 C10.7454545,0 0,11.2571429 0,25.1428571 L0,40 L5.45454545,40 L5.45454545,54.8571429 L22.9090909,54.8571429 L22.9090909,70.8571429 L14.1818182,70.8571429" id="Stroke-1" fill="#FFFFFF"></path>
                <line x1="20" y1="54.5" x2="27" y2="54.5" id="Stroke-2"></line>
                <path d="M20,44 C20,47.312 17.76,50 15,50 C12.24,50 10,47.312 10,44 L20,44 Z" id="Stroke-3"></path>
                <line x1="4" y1="28.5" x2="6" y2="28.5" id="Stroke-11"></line>
                <line x1="10" y1="28.5" x2="12" y2="28.5" id="Stroke-12"></line>
                <line x1="14" y1="28.5" x2="16" y2="28.5" id="Stroke-13"></line>
            </g>
            <path d="M171,77.5 C171,75.5453846 169.490625,73.9138462 167.49125,73.5423077 C167.49125,73.5140385 167.5,73.4898077 167.5,73.4615385 C167.5,70.7840385 165.150625,68.6153846 162.25,68.6153846 C160.7275,68.6153846 159.37125,69.2211538 158.40875,70.1782692 C157.67375,68.3246154 155.761875,67 153.5,67 C151.238125,67 149.32625,68.3246154 148.59125,70.1782692 C147.62875,69.2211538 146.2725,68.6153846 144.75,68.6153846 C141.849375,68.6153846 139.5,70.7840385 139.5,73.4615385 C139.5,73.4898077 139.50875,73.5140385 139.50875,73.5423077 C137.509375,73.9138462 136,75.5453846 136,77.5 C136,79.4546154 137.509375,81.0861538 139.50875,81.4576923 C139.50875,81.4859615 139.5,81.5101923 139.5,81.5384615 C139.5,84.2159615 141.849375,86.3846154 144.75,86.3846154 C146.2725,86.3846154 147.62875,85.7788462 148.59125,84.8217308 C149.32625,86.6753846 151.238125,88 153.5,88 C155.761875,88 157.67375,86.6753846 158.40875,84.8217308 C159.37125,85.7788462 160.7275,86.3846154 162.25,86.3846154 C165.150625,86.3846154 167.5,84.2159615 167.5,81.5384615 C167.5,81.5101923 167.49125,81.4859615 167.49125,81.4576923 C169.490625,81.0861538 171,79.4546154 171,77.5 Z" id="Stroke-5" stroke="#000000" stroke-width="2" fill="#FFFFFF"></path>
            <path d="M172,22.5 C172,21.1038462 170.87875,19.9384615 169.3935,19.6730769 C169.3935,19.6528846 169.4,19.6355769 169.4,19.6153846 C169.4,17.7028846 167.65475,16.1538462 165.5,16.1538462 C164.369,16.1538462 163.3615,16.5865385 162.6465,17.2701923 C162.1005,15.9461538 160.68025,15 159,15 C157.31975,15 155.8995,15.9461538 155.3535,17.2701923 C154.6385,16.5865385 153.631,16.1538462 152.5,16.1538462 C150.34525,16.1538462 148.6,17.7028846 148.6,19.6153846 C148.6,19.6355769 148.6065,19.6528846 148.6065,19.6730769 C147.12125,19.9384615 146,21.1038462 146,22.5 C146,23.8961538 147.12125,25.0615385 148.6065,25.3269231 C148.6065,25.3471154 148.6,25.3644231 148.6,25.3846154 C148.6,27.2971154 150.34525,28.8461538 152.5,28.8461538 C153.631,28.8461538 154.6385,28.4134615 155.3535,27.7298077 C155.8995,29.0538462 157.31975,30 159,30 C160.68025,30 162.1005,29.0538462 162.6465,27.7298077 C163.3615,28.4134615 164.369,28.8461538 165.5,28.8461538 C167.65475,28.8461538 169.4,27.2971154 169.4,25.3846154 C169.4,25.3644231 169.3935,25.3471154 169.3935,25.3269231 C170.87875,25.0615385 172,23.8961538 172,22.5 Z" id="Cloud-big" stroke="#000000" stroke-width="0.974160207" fill="#FFFFFF"></path>
            <text id="Dream-Clients" font-family="Manrope-ExtraLight_Bold, Manrope" font-size="38" font-weight="bold" line-spacing="43" fill="#000000">
                <tspan x="0" y="41">Dream</tspan>
                <tspan x="0" y="84">Clients</tspan>
            </text>
        </g>
    </g>
</svg>