<?xml version="1.0" encoding="UTF-8"?>
<svg width="183px" height="115px" viewBox="0 0 183 115" version="1.1" xmlns="http://www.w3.org/2000/svg" xmlns:xlink="http://www.w3.org/1999/xlink">
    <title>Group Copy</title>
    <g id="Page-1" stroke="none" stroke-width="1" fill="none" fill-rule="evenodd">
        <g id="Group-Copy" transform="translate(0.000000, 1.000000)">
            <g id="logo-podcast" transform="translate(0.000000, 1.000000)">
                <path d="M10.5667778,27.9990617 C10.8229259,27.9968724 11.217,27.9908519 11.749,27.981 C12.433,27.9683333 13.0853333,27.924 13.706,27.848 C15.872,27.5693333 17.7055,26.7998333 19.2065,25.5395 C20.7075,24.2791667 21.8443333,22.6736667 22.617,20.723 C23.3896667,18.7723333 23.776,16.638 23.776,14.32 C23.776,12.002 23.3896667,9.86766667 22.617,7.917 C21.8443333,5.96633333 20.7075,4.36083333 19.2065,3.1005 C17.7055,1.84016667 15.872,1.07066667 13.706,0.792 C13.0726667,0.716 12.4171667,0.671666667 11.7395,0.659 C11.0618333,0.646333333 10.609,0.64 10.381,0.64 L10.381,0.64 L1.66,0.64 L1.66,28 L10.5667778,27.9990617 Z M10.381,23.687 L6.315,23.687 L6.315,4.953 L10.381,4.953 C10.761,4.953 11.2455,4.9625 11.8345,4.9815 C12.4235,5.0005 12.946,5.06066667 13.402,5.162 C14.6686667,5.40266667 15.7105,5.96633333 16.5275,6.853 C17.3445,7.73966667 17.9493333,8.83533333 18.342,10.14 C18.7346667,11.4446667 18.931,12.838 18.931,14.32 C18.931,15.7513333 18.7378333,17.1193333 18.3515,18.424 C17.9651667,19.7286667 17.3666667,20.837 16.556,21.749 C15.7453333,22.661 14.694,23.2373333 13.402,23.478 C12.946,23.5666667 12.4235,23.6236667 11.8345,23.649 C11.2455,23.6743333 10.761,23.687 10.381,23.687 L10.381,23.687 Z M32.8706218,28 L32.8706218,17.569 C32.8706218,16.7836667 32.9656218,16.0521667 33.1556218,15.3745 C33.3456218,14.6968333 33.6401218,14.092 34.0391218,13.56 C34.4381218,13.028 34.9542885,12.591 35.5876218,12.249 C36.2209552,11.869 36.9334552,11.6473333 37.7251218,11.584 C38.5167885,11.5206667 39.2166218,11.5776667 39.8246218,11.755 L39.8246218,11.755 L39.8246218,7.48 C39.2166218,7.37866667 38.5896218,7.35016667 37.9436218,7.3945 C37.2976218,7.43883333 36.6674552,7.55916667 36.0531218,7.7555 C35.4387885,7.95183333 34.8782885,8.221 34.3716218,8.563 C33.7762885,8.93033333 33.2664552,9.39583333 32.8421218,9.9595 C32.7006774,10.1473889 32.5687329,10.341963 32.4462885,10.5432222 L32.319,10.764 L32.3196218,7.48 L28.2726218,7.48 L28.2726218,28 L32.8706218,28 Z M61.6808956,19.013 C61.858229,16.5556667 61.5858956,14.4213333 60.8638956,12.61 C60.1418956,10.7986667 59.036729,9.39583333 57.5483956,8.4015 C56.0600623,7.40716667 54.2518956,6.91 52.1238956,6.91 C50.1098956,6.91 48.3365623,7.366 46.8038956,8.278 C45.271229,9.19 44.074229,10.4725 43.2128956,12.1255 C42.3515623,13.7785 41.9208956,15.726 41.9208956,17.968 C41.9208956,20.0453333 42.3610623,21.882 43.2413956,23.478 C44.121729,25.074 45.347229,26.3216667 46.9178956,27.221 C48.4885623,28.1203333 50.3125623,28.57 52.3898956,28.57 C54.3658956,28.57 56.1740623,28.057 57.8143956,27.031 C59.454729,26.005 60.6675623,24.5673333 61.4528956,22.718 L61.4528956,22.718 L56.9308956,21.35 C56.4875623,22.3 55.8573956,23.0251667 55.0403956,23.5255 C54.2233956,24.0258333 53.251229,24.276 52.1238956,24.276 C50.3758956,24.276 49.0458956,23.706 48.1338956,22.566 C47.4364839,21.6942353 47.0057295,20.548406 46.8416327,19.1285121 L46.83,19.013 L59.4388956,19.013 L61.6808956,19.013 Z M57.032,15.555 L46.941,15.555 L46.9978403,15.2583304 C47.19665,14.3114204 47.5232659,13.5145052 47.977688,12.8675848 L48.1338956,12.6575 C49.0458956,11.4985 50.439229,10.919 52.3138956,10.919 C53.973229,10.919 55.189229,11.432 55.9618956,12.458 C56.4770067,13.142 56.823229,14.0934074 57.0005623,15.3122222 L57.032,15.555 Z M71.3012019,28.57 C73.1505352,28.57 74.6927019,28.2248333 75.9277019,27.5345 C76.7827019,27.0565769 77.5633321,26.3889349 78.2695924,25.531574 L78.502,25.239 L78.5022019,28 L82.5112019,28 L82.5112019,15.403 C82.5112019,14.5163333 82.4732019,13.6961667 82.3972019,12.9425 C82.3212019,12.1888333 82.0995352,11.451 81.7322019,10.729 C81.0608686,9.37366667 80.0317019,8.39833333 78.6447019,7.803 C77.2577019,7.20766667 75.6522019,6.91 73.8282019,6.91 C71.4088686,6.91 69.4867019,7.43566667 68.0617019,8.487 C66.6367019,9.53833333 65.6708686,10.9316667 65.1642019,12.667 L65.1642019,12.667 L69.3442019,13.978 C69.6862019,12.9266667 70.2878686,12.1856667 71.1492019,11.755 C72.0105352,11.3243333 72.9035352,11.109 73.8282019,11.109 C75.3608686,11.109 76.4502019,11.4446667 77.0962019,12.116 C77.6130019,12.6530667 77.9190286,13.42928 78.0142819,14.44464 L78.023,14.568 L78.0066819,14.5708 C77.4584686,14.6518667 76.9198819,14.7304 76.3909219,14.8064 L75.6047019,14.9185 C74.3063686,15.1021667 73.1030352,15.3016667 71.9947019,15.517 C70.8863686,15.7323333 69.9205352,15.973 69.0972019,16.239 C68.0078686,16.6063333 67.1212019,17.0781667 66.4372019,17.6545 C65.7532019,18.2308333 65.2465352,18.9148333 64.9172019,19.7065 C64.5878686,20.4981667 64.4232019,21.388 64.4232019,22.376 C64.4232019,23.5033333 64.6860352,24.5356667 65.2117019,25.473 C65.7373686,26.4103333 66.5132019,27.1608333 67.5392019,27.7245 C68.5652019,28.2881667 69.8192019,28.57 71.3012019,28.57 Z M72.2132019,24.922 C71.4912019,24.922 70.8863686,24.808 70.3987019,24.58 C69.9110352,24.352 69.5405352,24.0448333 69.2872019,23.6585 C69.0338686,23.2721667 68.9072019,22.8256667 68.9072019,22.319 C68.9072019,21.8756667 69.0053686,21.4893333 69.2017019,21.16 C69.3980352,20.8306667 69.6798686,20.5393333 70.0472019,20.286 C70.4145352,20.0326667 70.8642019,19.811 71.3962019,19.621 C71.9408686,19.4436667 72.5678686,19.2821667 73.2772019,19.1365 C73.9865352,18.9908333 74.8352019,18.8356667 75.8232019,18.671 C76.3720908,18.5795185 76.9815764,18.4802181 77.6516587,18.3730988 L77.962,18.324 L77.9614774,18.3640918 C77.9556611,18.6172959 77.9469366,18.8966735 77.9353039,19.2022245 L77.9227019,19.5165 C77.8910352,20.2701667 77.7548686,20.9383333 77.5142019,21.521 C77.3622019,21.9896667 77.0677019,22.49 76.6307019,23.022 C76.1937019,23.554 75.6078686,24.0036667 74.8732019,24.371 C74.1385352,24.7383333 73.2518686,24.922 72.2132019,24.922 Z M92.0365035,28 L92.0365035,15.365 C92.0365035,14.0856667 92.3880035,13.047 93.0910035,12.249 C93.7940035,11.451 94.7281702,11.052 95.8935035,11.052 C97.0968369,11.052 98.0468369,11.451 98.7435035,12.249 C99.4401702,13.047 99.7885035,14.1616667 99.7885035,15.593 L99.7885035,15.593 L99.7885035,28 L104.348504,28 L104.348504,15.365 C104.348504,14.4656667 104.519504,13.6898333 104.861504,13.0375 C105.203504,12.3851667 105.665837,11.8911667 106.248504,11.5555 C106.83117,11.2198333 107.489837,11.052 108.224504,11.052 C109.41517,11.052 110.358837,11.4478333 111.055504,12.2395 C111.75217,13.0311667 112.100504,14.13 112.100504,15.536 L112.100504,15.536 L112.100504,28 L116.679504,28 L116.679504,14.377 C116.679504,12.1603333 116.07467,10.3711667 114.865004,9.0095 C113.655337,7.64783333 111.916837,6.967 109.649504,6.967 C108.281504,6.967 107.04017,7.271 105.925504,7.879 C104.810837,8.487 103.927337,9.3325 103.275004,10.4155 L103.391,10.232 L103.300865,10.0645278 C102.851198,9.28236111 102.255469,8.63200694 101.513677,8.11346528 L101.261004,7.9455 C100.22867,7.29316667 98.9461702,6.967 97.4135035,6.967 C96.0201702,6.967 94.7630035,7.27416667 93.6420035,7.8885 C92.8267308,8.33528788 92.1337281,8.90099587 91.5629953,9.58562397 L91.466,9.707 L91.4665035,7.48 L87.4195035,7.48 L87.4195035,28 L92.0365035,28 Z M13.231,71.57 C16.385,71.57 19.0133333,70.7815 21.116,69.2045 C23.2186667,67.6275 24.6943333,65.5026667 25.543,62.83 L25.543,62.83 L20.926,61.557 C20.394,63.3303333 19.4883333,64.7236667 18.209,65.737 C16.9296667,66.7503333 15.2703333,67.257 13.231,67.257 C11.3943333,67.257 9.86166667,66.8453333 8.633,66.022 C7.40433333,65.1986667 6.48283333,64.0428333 5.8685,62.5545 C5.25416667,61.0661667 4.947,59.3213333 4.947,57.32 C4.95966667,55.3186667 5.27316667,53.5738333 5.8875,52.0855 C6.50183333,50.5971667 7.42016667,49.4413333 8.6425,48.618 C9.86483333,47.7946667 11.3943333,47.383 13.231,47.383 C15.2703333,47.383 16.9296667,47.8865 18.209,48.8935 C19.4883333,49.9005 20.394,51.297 20.926,53.083 L20.926,53.083 L25.543,51.81 C24.6943333,49.1373333 23.2186667,47.0125 21.116,45.4355 C19.0133333,43.8585 16.385,43.07 13.231,43.07 C10.495,43.07 8.15166667,43.6685 6.201,44.8655 C4.25033333,46.0625 2.7525,47.7313333 1.7075,49.872 C0.6625,52.0126667 0.14,54.4953333 0.14,57.32 C0.14,60.1446667 0.6625,62.6273333 1.7075,64.768 C2.7525,66.9086667 4.25033333,68.5775 6.201,69.7745 C8.15166667,70.9715 10.495,71.57 13.231,71.57 Z M34.6756311,71 L34.6756311,43.07 L30.0966311,43.07 L30.0966311,71 L34.6756311,71 Z M45.3282251,47.364 L45.3282251,43.165 L40.7492251,43.165 L40.7492251,47.364 L45.3282251,47.364 Z M45.3282251,71 L45.3282251,50.48 L40.7492251,50.48 L40.7492251,71 L45.3282251,71 Z M69.6418191,62.013 C69.8191524,59.5556667 69.5468191,57.4213333 68.8248191,55.61 C68.1028191,53.7986667 66.9976524,52.3958333 65.5093191,51.4015 C64.0209858,50.4071667 62.2128191,49.91 60.0848191,49.91 C58.0708191,49.91 56.2974858,50.366 54.7648191,51.278 C53.2321524,52.19 52.0351524,53.4725 51.1738191,55.1255 C50.3124858,56.7785 49.8818191,58.726 49.8818191,60.968 C49.8818191,63.0453333 50.3219858,64.882 51.2023191,66.478 C52.0826524,68.074 53.3081524,69.3216667 54.8788191,70.221 C56.4494858,71.1203333 58.2734858,71.57 60.3508191,71.57 C62.3268191,71.57 64.1349858,71.057 65.7753191,70.031 C67.4156524,69.005 68.6284858,67.5673333 69.4138191,65.718 L69.4138191,65.718 L64.8918191,64.35 C64.4484858,65.3 63.8183191,66.0251667 63.0013191,66.5255 C62.1843191,67.0258333 61.2121524,67.276 60.0848191,67.276 C58.3368191,67.276 57.0068191,66.706 56.0948191,65.566 C55.3974073,64.6942353 54.966653,63.548406 54.8025561,62.1285121 L54.791,62.013 L67.3998191,62.013 L69.6418191,62.013 Z M64.993,58.555 L54.902,58.555 L54.9587637,58.2583304 C55.1575734,57.3114204 55.4841893,56.5145052 55.9386115,55.8675848 L56.0948191,55.6575 C57.0068191,54.4985 58.4001524,53.919 60.2748191,53.919 C61.9341524,53.919 63.1501524,54.432 63.9228191,55.458 C64.4379302,56.142 64.7841524,57.0934074 64.9614858,58.3122222 L64.993,58.555 Z M77.9321254,71 L77.9321254,60.455 C77.9321254,59.201 78.0714587,58.1718333 78.3501254,57.3675 C78.628792,56.5631667 78.999292,55.9298333 79.4616254,55.4675 C79.9239587,55.0051667 80.4401254,54.679 81.0101254,54.489 C81.5801254,54.299 82.1564587,54.204 82.7391254,54.204 C83.8284587,54.204 84.6929587,54.4383333 85.3326254,54.907 C85.972292,55.3756667 86.4536254,55.9741667 86.7766254,56.7025 C87.0996254,57.4308333 87.3054587,58.1876667 87.3941254,58.973 C87.482792,59.7583333 87.5271254,60.474 87.5271254,61.12 L87.5271254,61.12 L87.5271254,71 L92.1631254,71 L92.1631254,59.543 C92.1631254,59.049 92.1219587,58.4061667 92.0396254,57.6145 C91.957292,56.8228333 91.776792,55.9836667 91.4981254,55.097 C91.2194587,54.2103333 90.788792,53.3743333 90.2061254,52.589 C89.6234587,51.8036667 88.8381254,51.1576667 87.8501254,50.651 C86.8621254,50.1443333 85.6081254,49.891 84.0881254,49.891 C82.162792,49.891 80.5414587,50.3121667 79.2241254,51.1545 C78.5654587,51.5756667 77.9867504,52.068875 77.4880004,52.634125 L77.381,52.761 L77.3811254,50.48 L73.2961254,50.48 L73.2961254,71 L77.9321254,71 Z M105.149577,71.3325 C106.44791,71.3641667 107.774743,71.2533333 109.130077,71 L109.130077,71 L109.130077,67.162 C107.850743,67.352 106.710743,67.4026667 105.710077,67.314 C104.70941,67.2253333 103.981077,66.801 103.525077,66.041 C103.28441,65.6483333 103.154577,65.1416667 103.135577,64.521 C103.116577,63.9003333 103.107077,63.1783333 103.107077,62.355 L103.107,54.071 L109.130077,54.071 L109.130077,50.48 L103.107,50.48 L103.107077,44.78 L98.5470767,44.78 L98.547,50.48 L94.8230767,50.48 L94.8230767,54.071 L98.547,54.071 L98.5478522,63.1130612 C98.5504372,63.9208844 98.5594848,64.6673129 98.574995,65.3523469 L98.5850767,65.756 C98.61041,66.6806667 98.85741,67.5863333 99.3260767,68.473 C99.8580767,69.4483333 100.637077,70.1608333 101.663077,70.6105 C102.689077,71.0601667 103.851243,71.3008333 105.149577,71.3325 Z M121.48636,71.57 C124.133693,71.57 126.20786,70.981 127.70886,69.803 C129.20986,68.625 129.96036,67.0036667 129.96036,64.939 C129.96036,63.875 129.74186,62.9693333 129.30486,62.222 C128.86786,61.4746667 128.158526,60.8318333 127.17686,60.2935 C126.195193,59.7551667 124.88736,59.277 123.25336,58.859 C121.65736,58.4536667 120.457193,58.1116667 119.65286,57.833 C118.848526,57.5543333 118.31336,57.2756667 118.04736,56.997 C117.78136,56.7183333 117.64836,56.3826667 117.64836,55.99 C117.64836,55.2933333 117.977693,54.7518333 118.63636,54.3655 C119.295026,53.9791667 120.162693,53.8176667 121.23936,53.881 C122.366693,53.9443333 123.269193,54.2293333 123.94686,54.736 C124.624526,55.2426667 125.02036,55.933 125.13436,56.807 L125.13436,56.807 L129.80836,55.971 C129.631026,54.7423333 129.16236,53.672 128.40236,52.76 C127.64236,51.848 126.64486,51.145 125.40986,50.651 C124.17486,50.157 122.75936,49.91 121.16336,49.91 C119.52936,49.91 118.110693,50.1665 116.90736,50.6795 C115.704026,51.1925 114.766693,51.924 114.09536,52.874 C113.424026,53.824 113.08836,54.9386667 113.08836,56.218 C113.08836,57.244 113.310026,58.118 113.75336,58.84 C114.196693,59.562 114.925026,60.1858333 115.93836,60.7115 C116.951693,61.2371667 118.319693,61.728 120.04236,62.184 C121.587693,62.5893333 122.734026,62.925 123.48136,63.191 C124.228693,63.457 124.713193,63.7325 124.93486,64.0175 C125.156526,64.3025 125.26736,64.6793333 125.26736,65.148 C125.26736,65.908 124.966526,66.5065 124.36486,66.9435 C123.763193,67.3805 122.91136,67.599 121.80936,67.599 C120.55536,67.599 119.516693,67.3076667 118.69336,66.725 C117.870026,66.1423333 117.338026,65.3443333 117.09736,64.331 L117.09736,64.331 L112.42336,65.053 C112.76536,67.1176667 113.728026,68.72 115.31136,69.86 C116.894693,71 118.953026,71.57 121.48636,71.57 Z" id="DreamClients" fill="#000000" fill-rule="nonzero"></path>
                <path d="M6.0005,105.04 L6,99.426 L6.137,99.5275 C6.81790909,100.004773 7.64633884,100.265103 8.62228926,100.308492 L8.9195,100.315 C9.9625,100.315 10.8725,100.0525 11.6495,99.5275 C12.4265,99.0025 13.0285,98.2885 13.4555,97.3855 C13.8825,96.4825 14.096,95.464 14.096,94.33 C14.096,93.182 13.879,92.15825 13.445,91.25875 C13.011,90.35925 12.40025,89.64875 11.61275,89.12725 C10.82525,88.60575 9.896,88.345 8.825,88.345 C7.747,88.345 6.84225,88.60575 6.11075,89.12725 C5.96445,89.23155 5.82522,89.34348 5.69306,89.46304 L5.685,89.472 L5.6855,88.66 L3.449,88.66 L3.449,105.04 L6.0005,105.04 Z M8.531,98.047 C7.852,98.047 7.30425,97.89125 6.88775,97.57975 C6.47125,97.26825 6.16675,96.8325 5.97425,96.2725 C5.78175,95.7125 5.6855,95.065 5.6855,94.33 C5.6855,93.588 5.78175,92.93875 5.97425,92.38225 C6.16675,91.82575 6.466,91.39175 6.872,91.08025 C7.278,90.76875 7.803,90.613 8.447,90.613 C9.126,90.613 9.686,90.77925 10.127,91.11175 C10.568,91.44425 10.8935,91.89225 11.1035,92.45575 C11.3135,93.01925 11.4185,93.644 11.4185,94.33 C11.4185,95.023 11.31525,95.65125 11.10875,96.21475 C10.90225,96.77825 10.5855,97.2245 10.1585,97.5535 C9.7315,97.8825 9.189,98.047 8.531,98.047 Z M21.4144795,100.315 C22.5484795,100.315 23.5389795,100.06125 24.3859795,99.55375 C25.2329795,99.04625 25.8927295,98.34275 26.3652295,97.44325 C26.8377295,96.54375 27.0739795,95.506 27.0739795,94.33 C27.0739795,93.161 26.8394795,92.12675 26.3704795,91.22725 C25.9014795,90.32775 25.2434795,89.6225 24.3964795,89.1115 C23.5494795,88.6005 22.5554795,88.345 21.4144795,88.345 C20.3014795,88.345 19.3214795,88.597 18.4744795,89.101 C17.6274795,89.605 16.9659795,90.305 16.4899795,91.201 C16.0139795,92.097 15.7759795,93.14 15.7759795,94.33 C15.7759795,95.499 16.0087295,96.53325 16.4742295,97.43275 C16.9397295,98.33225 17.5959795,99.0375 18.4429795,99.5485 C19.2899795,100.0595 20.2804795,100.315 21.4144795,100.315 Z M21.4144795,97.942 C20.4414795,97.942 19.7047295,97.61475 19.2042295,96.96025 C18.7037295,96.30575 18.4534795,95.429 18.4534795,94.33 C18.4534795,93.616 18.5584795,92.98775 18.7684795,92.44525 C18.9784795,91.90275 19.3022295,91.47925 19.7397295,91.17475 C20.1772295,90.87025 20.7354795,90.718 21.4144795,90.718 C22.4084795,90.718 23.1539795,91.04525 23.6509795,91.69975 C24.1479795,92.35425 24.3964795,93.231 24.3964795,94.33 C24.3964795,95.394 24.1514795,96.262 23.6614795,96.934 C23.1714795,97.606 22.4224795,97.942 21.4144795,97.942 Z M33.9339568,100.315 C35.0399568,100.315 35.9674568,100.0525 36.7164568,99.5275 C36.8662568,99.4225 37.0086368,99.30987 37.1435968,99.18961 L37.167,99.167 L37.1679568,100 L39.4044568,100 L39.4044568,84.88 L36.8529568,84.88 L36.852,89.211 L36.7427068,89.12725 C36.0777068,88.6531591 35.269525,88.394564 34.3181614,88.3514649 L34.0284568,88.345 C32.9574568,88.345 32.0264568,88.60575 31.2354568,89.12725 C30.4444568,89.64875 29.8337068,90.35925 29.4032068,91.25875 C28.9727068,92.15825 28.7574568,93.182 28.7574568,94.33 C28.7574568,95.464 28.9709568,96.4825 29.3979568,97.3855 C29.8249568,98.2885 30.4269568,99.0025 31.2039568,99.5275 C31.9809568,100.0525 32.8909568,100.315 33.9339568,100.315 Z M34.3224568,98.047 C33.6644568,98.047 33.1219568,97.8825 32.6949568,97.5535 C32.2679568,97.2245 31.9512068,96.77825 31.7447068,96.21475 C31.5382068,95.65125 31.4349568,95.023 31.4349568,94.33 C31.4349568,93.644 31.5399568,93.01925 31.7499568,92.45575 C31.9599568,91.89225 32.2854568,91.44425 32.7264568,91.11175 C33.1674568,90.77925 33.7274568,90.613 34.4064568,90.613 C35.0504568,90.613 35.5754568,90.76875 35.9814568,91.08025 C36.3874568,91.39175 36.6867068,91.82575 36.8792068,92.38225 C37.0717068,92.93875 37.1679568,93.588 37.1679568,94.33 C37.1679568,95.065 37.0717068,95.7125 36.8792068,96.2725 C36.6867068,96.8325 36.3822068,97.26825 35.9657068,97.57975 C35.5492068,97.89125 35.0014568,98.047 34.3224568,98.047 Z M47.2654359,100.315 C48.5324359,100.315 49.6034359,100.00525 50.4784359,99.38575 C51.3534359,98.76625 51.9659359,97.879 52.3159359,96.724 L52.3159359,96.724 L49.7329359,96.1465 C49.5369359,96.7275 49.2446859,97.172 48.8561859,97.48 C48.4676859,97.788 47.9374359,97.942 47.2654359,97.942 C46.3134359,97.942 45.5959359,97.6095 45.1129359,96.9445 C44.6299359,96.2795 44.3884359,95.408 44.3884359,94.33 C44.3884359,93.637 44.4899359,93.0175 44.6929359,92.4715 C44.8959359,91.9255 45.2109359,91.49675 45.6379359,91.18525 C46.0649359,90.87375 46.6074359,90.718 47.2654359,90.718 C47.8464359,90.718 48.3644359,90.88775 48.8194359,91.22725 C49.2744359,91.56675 49.5999359,92.041 49.7959359,92.65 L49.7959359,92.65 L52.3159359,91.9675 C52.0429359,90.8475 51.4601859,89.96375 50.5676859,89.31625 C49.6751859,88.66875 48.5849359,88.345 47.2969359,88.345 C46.1489359,88.345 45.1584359,88.60225 44.3254359,89.11675 C43.4924359,89.63125 42.8501859,90.33825 42.3986859,91.23775 C41.9471859,92.13725 41.7179359,93.168 41.7109359,94.33 C41.7179359,95.471 41.9401859,96.493 42.3776859,97.396 C42.8151859,98.299 43.4469359,99.01125 44.2729359,99.53275 C45.0989359,100.05425 46.0964359,100.315 47.2654359,100.315 Z M57.4224171,100.315 C58.4444171,100.315 59.2966671,100.12425 59.9791671,99.74275 C60.4341671,99.4884167 60.851056,99.1368611 61.2298338,98.6880833 L61.401,98.475 L61.4019171,100 L63.6174171,100 L63.6174171,93.0385 C63.6174171,92.5485 63.5964171,92.09525 63.5544171,91.67875 C63.5124171,91.26225 63.3899171,90.8545 63.1869171,90.4555 C62.8159171,89.7065 62.2471671,89.1675 61.4806671,88.8385 C60.7141671,88.5095 59.8269171,88.345 58.8189171,88.345 C57.4819171,88.345 56.4196671,88.6355 55.6321671,89.2165 C54.8446671,89.7975 54.3109171,90.5675 54.0309171,91.5265 L54.0309171,91.5265 L56.3409171,92.251 C56.5299171,91.67 56.8624171,91.2605 57.3384171,91.0225 C57.8144171,90.7845 58.3079171,90.6655 58.8189171,90.6655 C59.6659171,90.6655 60.2679171,90.851 60.6249171,91.222 C60.9105171,91.5188 61.0796371,91.94776 61.1322771,92.50888 L61.136,92.577 L60.9018546,92.6119375 C60.7141671,92.6395 60.5285577,92.6665156 60.3450265,92.6929844 L59.8006671,92.77075 C59.0831671,92.87225 58.4181671,92.9825 57.8056671,93.1015 C57.1931671,93.2205 56.6594171,93.3535 56.2044171,93.5005 C55.6024171,93.7035 55.1124171,93.96425 54.7344171,94.28275 C54.3564171,94.60125 54.0764171,94.97925 53.8944171,95.41675 C53.7124171,95.85425 53.6214171,96.346 53.6214171,96.892 C53.6214171,97.515 53.7666671,98.0855 54.0571671,98.6035 C54.3476671,99.1215 54.7764171,99.53625 55.3434171,99.84775 C55.9104171,100.15925 56.6034171,100.315 57.4224171,100.315 Z M57.9264171,98.299 C57.5274171,98.299 57.1931671,98.236 56.9236671,98.11 C56.6541671,97.984 56.4494171,97.81425 56.3094171,97.60075 C56.1694171,97.38725 56.0994171,97.1405 56.0994171,96.8605 C56.0994171,96.6155 56.1536671,96.402 56.2621671,96.22 C56.3706671,96.038 56.5264171,95.877 56.7294171,95.737 C56.9324171,95.597 57.1809171,95.4745 57.4749171,95.3695 C57.7759171,95.2715 58.1224171,95.18225 58.5144171,95.10175 C58.9064171,95.02125 59.3754171,94.9355 59.9214171,94.8445 C60.1944171,94.799 60.4945421,94.75 60.8217921,94.6975 L61.103,94.653 L61.0984671,94.84975 C61.0963671,94.92045 61.0939171,94.9943 61.0911171,95.0713 L61.0816671,95.31175 C61.0641671,95.72825 60.9889171,96.0975 60.8559171,96.4195 C60.7719171,96.6785 60.6091671,96.955 60.3676671,97.249 C60.1261671,97.543 59.8024171,97.7915 59.3964171,97.9945 C58.9904171,98.1975 58.5004171,98.299 57.9264171,98.299 Z M70.7293996,100.315 C72.1923996,100.315 73.3386496,99.9895 74.1681496,99.3385 C74.9976496,98.6875 75.4123996,97.7915 75.4123996,96.6505 C75.4123996,96.0625 75.2916496,95.562 75.0501496,95.149 C74.8086496,94.736 74.4166496,94.38075 73.8741496,94.08325 C73.3316496,93.78575 72.6088996,93.5215 71.7058996,93.2905 C70.8238996,93.0665 70.1606496,92.8775 69.7161496,92.7235 C69.2716496,92.5695 68.9758996,92.4155 68.8288996,92.2615 C68.6818996,92.1075 68.6083996,91.922 68.6083996,91.705 C68.6083996,91.32 68.7903996,91.02075 69.1543996,90.80725 C69.5183996,90.59375 69.9978996,90.5045 70.5928996,90.5395 C71.2158996,90.5745 71.7146496,90.732 72.0891496,91.012 C72.4636496,91.292 72.6823996,91.6735 72.7453996,92.1565 L72.7453996,92.1565 L75.3283996,91.6945 C75.2303996,91.0155 74.9713996,90.424 74.5513996,89.92 C74.1313996,89.416 73.5801496,89.0275 72.8976496,88.7545 C72.2151496,88.4815 71.4328996,88.345 70.5508996,88.345 C69.6478996,88.345 68.8638996,88.48675 68.1988996,88.77025 C67.5338996,89.05375 67.0158996,89.458 66.6448996,89.983 C66.2738996,90.508 66.0883996,91.124 66.0883996,91.831 C66.0883996,92.398 66.2108996,92.881 66.4558996,93.28 C66.7008996,93.679 67.1033996,94.02375 67.6633996,94.31425 C68.2233996,94.60475 68.9793996,94.876 69.9313996,95.128 C70.7853996,95.352 71.4188996,95.5375 71.8318996,95.6845 C72.2448996,95.8315 72.5126496,95.98375 72.6351496,96.14125 C72.7576496,96.29875 72.8188996,96.507 72.8188996,96.766 C72.8188996,97.186 72.6526496,97.51675 72.3201496,97.75825 C71.9876496,97.99975 71.5168996,98.1205 70.9078996,98.1205 C70.2148996,98.1205 69.6408996,97.9595 69.1858996,97.6375 C68.7308996,97.3155 68.4368996,96.8745 68.3038996,96.3145 L68.3038996,96.3145 L65.7208996,96.7135 C65.9098996,97.8545 66.4418996,98.74 67.3168996,99.37 C68.1918996,100 69.3293996,100.315 70.7293996,100.315 Z M82.1691355,100.18375 C82.8866355,100.20125 83.6198855,100.14 84.3688855,100 L84.3688855,100 L84.3688855,97.879 C83.6618855,97.984 83.0318855,98.012 82.4788855,97.963 C81.9258855,97.914 81.5233855,97.6795 81.2713855,97.2595 C81.1383855,97.0425 81.0666355,96.7625 81.0561355,96.4195 C81.0456355,96.0765 81.0403855,95.6775 81.0403855,95.2225 L81.0403855,95.2225 L81.04,90.645 L84.3688855,90.6445 L84.3688855,88.66 L81.04,88.66 L81.0403855,85.51 L78.5203855,85.51 L78.52,88.66 L76.4623855,88.66 L76.4623855,90.6445 L78.52,90.645 L78.5203855,95.3695 C78.5203855,95.8847 78.5248655,96.35734 78.5338255,96.78742 L78.5413855,97.102 C78.5553855,97.613 78.6918855,98.1135 78.9508855,98.6035 C79.2448855,99.1425 79.6753855,99.53625 80.2423855,99.78475 C80.8093855,100.03325 81.4516355,100.16625 82.1691355,100.18375 Z" id="podcast" fill="#000000" fill-rule="nonzero"></path>
                <path d="M135,98 C135,95.58 133.145625,93.56 130.68925,93.1 C130.68925,93.065 130.7,93.035 130.7,93 C130.7,89.685 127.813625,87 124.25,87 C122.3795,87 120.71325,87.75 119.53075,88.935 C118.62775,86.64 116.278875,85 113.5,85 C110.721125,85 108.37225,86.64 107.46925,88.935 C106.28675,87.75 104.6205,87 102.75,87 C99.186375,87 96.3,89.685 96.3,93 C96.3,93.035 96.31075,93.065 96.31075,93.1 C93.854375,93.56 92,95.58 92,98 C92,100.42 93.854375,102.44 96.31075,102.9 C96.31075,102.935 96.3,102.965 96.3,103 C96.3,106.315 99.186375,109 102.75,109 C104.6205,109 106.28675,108.25 107.46925,107.065 C108.37225,109.36 110.721125,111 113.5,111 C116.278875,111 118.62775,109.36 119.53075,107.065 C120.71325,108.25 122.3795,109 124.25,109 C127.813625,109 130.7,106.315 130.7,103 C130.7,102.965 130.68925,102.935 130.68925,102.9 C133.145625,102.44 135,100.42 135,98 Z" id="Stroke-5" stroke="#000000" stroke-width="2" fill="#FFFFFF"></path>
            </g>
            <g id="head" transform="translate(134.000000, 0.000000)" stroke="#000000" stroke-width="2">
                <path d="M48,72 L48,25.1428571 C48,11.2571429 37.2545455,0 24,0 C10.7454545,0 0,11.2571429 0,25.1428571 L0,40 L5.45454545,40 L5.45454545,54.8571429 L22.9090909,54.8571429 L22.9090909,70.8571429 L14.1818182,70.8571429" id="Stroke-1" fill="#FFFFFF"></path>
                <line x1="20" y1="54.5" x2="27" y2="54.5" id="Stroke-2"></line>
                <path d="M20,44 C20,47.312 17.76,50 15,50 C12.24,50 10,47.312 10,44 L20,44 Z" id="Stroke-3"></path>
                <line x1="4" y1="28.5" x2="6" y2="28.5" id="Stroke-11"></line>
                <line x1="10" y1="28.5" x2="12" y2="28.5" id="Stroke-12"></line>
                <line x1="14" y1="28.5" x2="16" y2="28.5" id="Stroke-13"></line>
            </g>
            <path d="M174,14.5 C174,12.9176923 172.749375,11.5969231 171.09275,11.2961538 C171.09275,11.2732692 171.1,11.2536538 171.1,11.2307692 C171.1,9.06326923 169.153375,7.30769231 166.75,7.30769231 C165.4885,7.30769231 164.36475,7.79807692 163.56725,8.57288462 C162.95825,7.07230769 161.374125,6 159.5,6 C157.625875,6 156.04175,7.07230769 155.43275,8.57288462 C154.63525,7.79807692 153.5115,7.30769231 152.25,7.30769231 C149.846625,7.30769231 147.9,9.06326923 147.9,11.2307692 C147.9,11.2536538 147.90725,11.2732692 147.90725,11.2961538 C146.250625,11.5969231 145,12.9176923 145,14.5 C145,16.0823077 146.250625,17.4030769 147.90725,17.7038462 C147.90725,17.7267308 147.9,17.7463462 147.9,17.7692308 C147.9,19.9367308 149.846625,21.6923077 152.25,21.6923077 C153.5115,21.6923077 154.63525,21.2019231 155.43275,20.4271154 C156.04175,21.9276923 157.625875,23 159.5,23 C161.374125,23 162.95825,21.9276923 163.56725,20.4271154 C164.36475,21.2019231 165.4885,21.6923077 166.75,21.6923077 C169.153375,21.6923077 171.1,19.9367308 171.1,17.7692308 C171.1,17.7463462 171.09275,17.7267308 171.09275,17.7038462 C172.749375,17.4030769 174,16.0823077 174,14.5 Z" id="Cloud-big" stroke="#000000" stroke-width="0.974160207" fill="#FFFFFF"></path>
            <path d="M170,71.5 C170,69.5453846 168.490625,67.9138462 166.49125,67.5423077 C166.49125,67.5140385 166.5,67.4898077 166.5,67.4615385 C166.5,64.7840385 164.150625,62.6153846 161.25,62.6153846 C159.7275,62.6153846 158.37125,63.2211538 157.40875,64.1782692 C156.67375,62.3246154 154.761875,61 152.5,61 C150.238125,61 148.32625,62.3246154 147.59125,64.1782692 C146.62875,63.2211538 145.2725,62.6153846 143.75,62.6153846 C140.849375,62.6153846 138.5,64.7840385 138.5,67.4615385 C138.5,67.4898077 138.50875,67.5140385 138.50875,67.5423077 C136.509375,67.9138462 135,69.5453846 135,71.5 C135,73.4546154 136.509375,75.0861538 138.50875,75.4576923 C138.50875,75.4859615 138.5,75.5101923 138.5,75.5384615 C138.5,78.2159615 140.849375,80.3846154 143.75,80.3846154 C145.2725,80.3846154 146.62875,79.7788462 147.59125,78.8217308 C148.32625,80.6753846 150.238125,82 152.5,82 C154.761875,82 156.67375,80.6753846 157.40875,78.8217308 C158.37125,79.7788462 159.7275,80.3846154 161.25,80.3846154 C164.150625,80.3846154 166.5,78.2159615 166.5,75.5384615 C166.5,75.5101923 166.49125,75.4859615 166.49125,75.4576923 C168.490625,75.0861538 170,73.4546154 170,71.5 Z" id="Stroke-5" stroke="#000000" stroke-width="2" fill="#FFFFFF"></path>
        </g>
    </g>
</svg>